<svg width="720" height="721" viewBox="0 0 720 721" fill="none" xmlns="http://www.w3.org/2000/svg">
<path fill-rule="evenodd" clip-rule="evenodd" d="M307.858 4.74847V46.3103H313.596V3.96314C328.788 2.00808 344.276 1 360 1C394.283 1 427.447 5.79218 458.858 14.7432V53.3103H464.596V16.4303C469.694 17.976 474.745 19.6318 479.746 21.3949V35.3103H485.483V23.4732C510.599 32.8145 534.391 44.879 556.499 59.3078L533.955 82.4761L485.483 35.3103L479.746 35.3103L531.48 85.0198L507.31 109.858H416.052C414.394 108.053 412.3 106.654 409.936 105.831L464.596 53.3103L458.858 53.3103L405.72 105.017C405.481 105.006 405.241 105 405 105H404.015C403.478 104.872 402.919 104.804 402.344 104.804C401.768 104.804 401.209 104.872 400.673 105H385C376.716 105 370 111.716 370 120V133.321L340.528 163.609V168.031L370 137.359V140C370 143.802 371.414 147.273 373.746 149.917V221.31H379.483V153.953C381.191 154.629 383.052 155 385 155H395.746V221.31H401.483V155H405C413.284 155 420 148.284 420 140V120C420 118.467 419.77 116.988 419.343 115.596H507.31L534.189 87.6227L536.286 89.6381C535.37 90.8427 534.826 92.3459 534.826 93.9762C534.826 97.9371 538.037 101.148 541.998 101.148C542.289 101.148 542.576 101.131 542.858 101.097V189.31H548.596V97.3669H548.319C548.862 96.3573 549.169 95.2027 549.169 93.9762C549.169 90.0153 545.958 86.8044 541.998 86.8044C540.948 86.8044 539.95 87.03 539.051 87.4355L536.631 85.0806L559.496 61.285C589.859 81.5354 616.97 106.277 639.881 134.56L613.29 160.435C612.391 160.03 611.394 159.804 610.344 159.804C606.383 159.804 603.172 163.015 603.172 166.976C603.172 170.937 606.383 174.148 610.344 174.148C610.517 174.148 610.688 174.142 610.858 174.13V261.31L557.29 313.435C556.391 313.03 555.394 312.804 554.344 312.804C550.383 312.804 547.172 316.015 547.172 319.976C547.172 323.937 550.383 327.148 554.344 327.148C558.305 327.148 561.516 323.937 561.516 319.976C561.516 318.346 560.972 316.843 560.055 315.638L616.596 261.31V170.493C617.181 169.454 617.516 168.254 617.516 166.976C617.516 165.346 616.972 163.843 616.055 162.638L642.229 137.489C644.649 140.54 647.02 143.632 649.342 146.762L635.29 160.435C634.391 160.03 633.394 159.804 632.344 159.804C628.383 159.804 625.172 163.015 625.172 166.976C625.172 170.937 628.383 174.148 632.344 174.148C636.305 174.148 639.516 170.937 639.516 166.976C639.516 165.346 638.972 163.843 638.055 162.638L651.507 149.713C680.109 189.107 700.922 234.524 711.681 283.701L704.728 290.467C703.536 290.162 702.287 290 701 290H681C672.716 290 666 296.716 666 305V325C666 333.284 672.716 340 681 340H701C709.284 340 716 333.284 716 325V307.153C718.635 324.719 720 342.7 720 361C720 559.823 558.823 721 360 721C161.177 721 0 559.823 0 361C0 327.367 4.61203 294.812 13.2381 263.932L53.2021 225.532C53.0691 226.335 53 227.159 53 228V233.472L25.2899 260.435C24.3912 260.03 23.3938 259.804 22.3438 259.804C18.3829 259.804 15.1719 263.015 15.1719 266.976C15.1719 270.937 18.3829 274.148 22.3438 274.148C26.3047 274.148 29.5157 270.937 29.5157 266.976C29.5157 265.346 28.9717 263.843 28.0554 262.638L53 238.67V248C53 256.284 59.7157 263 68 263H88C90.0734 263 92.0486 262.579 93.8448 261.819L135.286 301.638C134.37 302.843 133.826 304.346 133.826 305.976C133.826 309.937 137.037 313.148 140.998 313.148C144.958 313.148 148.169 309.937 148.169 305.976C148.169 302.015 144.958 298.804 140.998 298.804C139.947 298.804 138.95 299.03 138.051 299.435L97.2931 259.775C100.769 257.028 103 252.775 103 248V228C103 225.522 102.399 223.185 101.336 221.126C102.68 219.822 103.516 217.997 103.516 215.976C103.516 214.346 102.972 212.843 102.055 211.638L158.596 157.31H152.858L99.2899 209.435C98.3911 209.03 97.3937 208.804 96.3437 208.804C93.4044 208.804 90.878 210.573 89.7704 213.103C89.1898 213.035 88.599 213 88 213H84.4831V208.418L84.5957 208.31V133.84C87.4206 131.902 89.2734 128.649 89.2734 124.964C89.2734 124.563 89.2514 124.166 89.2085 123.776C107.831 102.535 128.913 83.5043 152.009 67.1279L152.858 67.9437V157.31H158.596V73.4566L205.429 118.457C204.054 120.264 203.238 122.519 203.238 124.964C203.238 130.521 207.452 135.094 212.858 135.663V221.31H218.596V134.692C222.236 132.968 224.754 129.26 224.754 124.964C224.754 119.023 219.937 114.207 213.996 114.207C212.421 114.207 210.925 114.545 209.577 115.153L158.596 65.5453V65.3669H158.412L156.794 63.7927C201.043 33.4812 252.403 12.7942 307.858 4.74847ZM708.44 291.972L712.591 287.984C713.326 291.551 714.008 295.137 714.636 298.742C713.326 295.891 711.148 293.522 708.44 291.972ZM22.2004 263.247C22.2658 263.247 22.3308 263.249 22.3953 263.252L22.3438 263.302H22.8316C24.511 263.601 25.7863 265.068 25.7863 266.833C25.7863 268.813 24.1808 270.419 22.2004 270.419C20.2199 270.419 18.6144 268.813 18.6144 266.833C18.6144 264.852 20.2199 263.247 22.2004 263.247ZM78.7456 208.42V155.367H78.8582V136.125C71.2928 145.571 64.1937 155.406 57.5956 165.597V217.195C60.2926 214.597 63.9598 213 68 213H74.0387L78.7456 208.42ZM99.1129 217.925C97.5002 216.147 95.4668 214.758 93.1699 213.915C93.8057 212.912 94.9253 212.247 96.2003 212.247C96.2657 212.247 96.3307 212.249 96.3953 212.252L96.3437 212.302H96.8316C98.511 212.601 99.7862 214.068 99.7862 215.833C99.7862 216.614 99.5366 217.336 99.1129 217.925ZM137.555 305.833C137.555 304.068 138.83 302.601 140.51 302.302H140.998L140.946 302.252C140.97 302.251 140.993 302.25 141.017 302.249C141.058 302.248 141.1 302.247 141.141 302.247C143.121 302.247 144.727 303.852 144.727 305.833C144.727 307.813 143.121 309.419 141.141 309.419C139.16 309.419 137.555 307.813 137.555 305.833ZM51.8581 221.31V174.756C36.4215 200.241 24.0573 227.795 15.2793 256.904L51.8581 221.31L54.5707 221.31H51.8581ZM632.344 163.302L632.395 163.252C632.35 163.25 632.304 163.248 632.257 163.247L632.222 163.247L632.2 163.247C630.22 163.247 628.614 164.852 628.614 166.833C628.614 168.813 630.22 170.419 632.2 170.419C634.181 170.419 635.786 168.813 635.786 166.833C635.786 165.068 634.511 163.601 632.832 163.302H632.344ZM610.395 163.252C610.372 163.251 610.35 163.25 610.327 163.249C610.285 163.248 610.243 163.247 610.2 163.247C608.22 163.247 606.614 164.852 606.614 166.833C606.614 168.813 608.22 170.419 610.2 170.419C610.425 170.419 610.645 170.398 610.858 170.359V169.367H612.738C613.386 168.718 613.786 167.822 613.786 166.833C613.786 165.068 612.511 163.601 610.832 163.302H610.344L610.395 163.252ZM216.971 129.367H212.858V129.956C210.542 129.356 208.832 127.253 208.832 124.749C208.832 122.102 210.745 119.901 213.264 119.453L213.996 119.453L213.919 119.378C214.016 119.373 214.113 119.37 214.211 119.37C217.182 119.37 219.59 121.779 219.59 124.749C219.59 126.711 218.54 128.427 216.971 129.367ZM159.29 273.435L160 272.745V265C160 256.716 166.716 250 175 250H183.374L212.858 221.31H218.596L188.738 250H195C199.199 250 202.994 251.725 205.717 254.505L240.858 220.31H246.596L207.957 257.437C209.256 259.658 210 262.242 210 265V285C210 293.284 203.284 300 195 300H175C167.093 300 160.616 293.883 160.041 286.123C158.962 286.774 157.696 287.148 156.344 287.148C152.383 287.148 149.172 283.937 149.172 279.976C149.172 276.015 152.383 272.804 156.344 272.804C157.394 272.804 158.391 273.03 159.29 273.435ZM156.832 276.302C158.511 276.601 159.786 278.068 159.786 279.833C159.786 281.813 158.181 283.419 156.2 283.419C154.22 283.419 152.614 281.813 152.614 279.833C152.614 277.852 154.22 276.247 156.2 276.247C156.266 276.247 156.331 276.249 156.395 276.252L156.344 276.302H156.832ZM395.746 221.31L452.286 275.638C451.37 276.843 450.826 278.346 450.826 279.976C450.826 283.937 454.037 287.148 457.998 287.148C461.958 287.148 465.169 283.937 465.169 279.976C465.169 276.015 461.958 272.804 457.998 272.804C456.948 272.804 455.95 273.03 455.051 273.435L401.483 221.31H395.746ZM454.555 279.833C454.555 278.068 455.83 276.601 457.51 276.302H457.998L457.946 276.252C458.011 276.249 458.076 276.247 458.141 276.247C460.121 276.247 461.727 277.852 461.727 279.833C461.727 281.813 460.121 283.419 458.141 283.419C456.161 283.419 454.555 281.813 454.555 279.833ZM430.286 275.638L373.746 221.31H379.483L433.051 273.435C433.95 273.03 434.948 272.804 435.998 272.804C439.958 272.804 443.169 276.015 443.169 279.976C443.169 283.937 439.958 287.148 435.998 287.148C432.037 287.148 428.826 283.937 428.826 279.976C428.826 278.346 429.37 276.843 430.286 275.638ZM435.51 276.302C433.83 276.601 432.555 278.068 432.555 279.833C432.555 281.813 434.161 283.419 436.141 283.419C438.121 283.419 439.727 281.813 439.727 279.833C439.727 277.852 438.121 276.247 436.141 276.247C436.076 276.247 436.011 276.249 435.946 276.252L435.998 276.302H435.51ZM541.51 90.3023C539.83 90.6006 538.555 92.0678 538.555 93.8328C538.555 95.8133 540.161 97.4187 542.141 97.4187C544.121 97.4187 545.727 95.8133 545.727 93.8328C545.727 91.8524 544.121 90.2469 542.141 90.2469C542.076 90.2469 542.011 90.2486 541.946 90.2521L541.998 90.3023H541.51ZM554.2 316.247C554.266 316.247 554.331 316.249 554.395 316.252L554.344 316.302H554.832C556.511 316.601 557.786 318.068 557.786 319.833C557.786 321.813 556.181 323.419 554.2 323.419C552.22 323.419 550.614 321.813 550.614 319.833C550.614 317.852 552.22 316.247 554.2 316.247ZM548.596 189.31L492.055 243.638C492.972 244.843 493.516 246.346 493.516 247.976C493.516 251.937 490.305 255.148 486.344 255.148C482.383 255.148 479.172 251.937 479.172 247.976C479.172 244.015 482.383 240.804 486.344 240.804C487.394 240.804 488.391 241.03 489.29 241.435L542.858 189.31H548.596ZM486.344 244.302L486.395 244.252C486.375 244.251 486.354 244.25 486.334 244.249L486.294 244.248C486.263 244.247 486.232 244.247 486.2 244.247C484.22 244.247 482.614 245.852 482.614 247.833C482.614 249.813 484.22 251.419 486.2 251.419C488.181 251.419 489.786 249.813 489.786 247.833C489.786 246.068 488.511 244.601 486.832 244.302H486.344ZM239 106C239 97.7157 245.716 91 254 91H261.931L307.858 46.3103L313.596 46.3103L267.086 91H274C282.284 91 289 97.7157 289 106V126C289 133.784 283.071 140.183 275.483 140.928V163.609H340.528V168.03H275.483V200.31H269.746V168.03H269.67V163.609H269.746V141H267.483V220.31H261.746V141H254C251.307 141 248.78 140.29 246.596 139.048V220.31H240.858V133.237C239.674 131.091 239 128.624 239 126V106ZM318.286 274.638L261.746 220.31H267.483L321.051 272.435C321.95 272.03 322.947 271.804 323.997 271.804C327.958 271.804 331.169 275.015 331.169 278.976C331.169 282.937 327.958 286.148 323.997 286.148C320.037 286.148 316.826 282.937 316.826 278.976C316.826 277.346 317.37 275.843 318.286 274.638ZM323.51 275.302C321.83 275.601 320.555 277.068 320.555 278.833C320.555 280.813 322.16 282.419 324.141 282.419C326.121 282.419 327.727 280.813 327.727 278.833C327.727 276.852 326.121 275.247 324.141 275.247C324.076 275.247 324.011 275.249 323.946 275.252L323.998 275.302H323.51ZM269.746 200.31L326.286 254.638C325.37 255.843 324.826 257.346 324.826 258.976C324.826 262.937 328.037 266.148 331.997 266.148C335.958 266.148 339.169 262.937 339.169 258.976C339.169 255.015 335.958 251.804 331.997 251.804C330.947 251.804 329.95 252.03 329.051 252.435L275.483 200.31H269.746ZM328.555 258.833C328.555 257.068 329.83 255.601 331.51 255.302H331.997L331.946 255.252C332.01 255.249 332.075 255.247 332.141 255.247C334.121 255.247 335.727 256.852 335.727 258.833C335.727 260.813 334.121 262.419 332.141 262.419C330.16 262.419 328.555 260.813 328.555 258.833Z" fill="white"/>
<path d="M185.72 537.885V545.512H173.165V585H163.715V545.512H151.16V537.885H185.72ZM227.378 565.492C227.378 566.842 227.288 568.057 227.108 569.137H199.77C199.995 571.837 200.94 573.952 202.605 575.482C204.27 577.012 206.318 577.777 208.748 577.777C212.258 577.777 214.755 576.27 216.24 573.255H226.433C225.353 576.855 223.283 579.825 220.223 582.165C217.163 584.46 213.405 585.608 208.95 585.608C205.35 585.608 202.11 584.82 199.23 583.245C196.395 581.625 194.168 579.352 192.548 576.427C190.973 573.502 190.185 570.127 190.185 566.302C190.185 562.432 190.973 559.035 192.548 556.11C194.123 553.185 196.328 550.935 199.163 549.36C201.998 547.785 205.26 546.997 208.95 546.997C212.505 546.997 215.678 547.762 218.468 549.292C221.303 550.822 223.485 553.005 225.015 555.84C226.59 558.63 227.378 561.847 227.378 565.492ZM217.59 562.792C217.545 560.362 216.668 558.427 214.958 556.987C213.248 555.502 211.155 554.76 208.68 554.76C206.34 554.76 204.36 555.48 202.74 556.92C201.165 558.315 200.198 560.272 199.838 562.792H217.59ZM231.845 566.302C231.845 562.432 232.633 559.057 234.208 556.177C235.783 553.252 237.965 551.002 240.755 549.427C243.545 547.807 246.74 546.997 250.34 546.997C254.975 546.997 258.8 548.167 261.815 550.507C264.875 552.802 266.923 556.042 267.958 560.227H257.765C257.225 558.607 256.303 557.347 254.998 556.447C253.738 555.502 252.163 555.03 250.273 555.03C247.573 555.03 245.435 556.02 243.86 558C242.285 559.935 241.498 562.702 241.498 566.302C241.498 569.857 242.285 572.625 243.86 574.605C245.435 576.54 247.573 577.507 250.273 577.507C254.098 577.507 256.595 575.797 257.765 572.377H267.958C266.923 576.427 264.875 579.645 261.815 582.03C258.755 584.415 254.93 585.608 250.34 585.608C246.74 585.608 243.545 584.82 240.755 583.245C237.965 581.625 235.783 579.375 234.208 576.495C232.633 573.57 231.845 570.172 231.845 566.302ZM295.603 547.065C300.058 547.065 303.658 548.482 306.403 551.317C309.148 554.107 310.521 558.022 310.521 563.062V585H301.071V564.345C301.071 561.375 300.328 559.102 298.843 557.527C297.358 555.907 295.333 555.097 292.768 555.097C290.158 555.097 288.088 555.907 286.558 557.527C285.073 559.102 284.331 561.375 284.331 564.345V585H274.881V547.605H284.331V552.262C285.591 550.642 287.188 549.382 289.123 548.482C291.103 547.537 293.263 547.065 295.603 547.065ZM336.112 585.608C332.512 585.608 329.272 584.82 326.392 583.245C323.512 581.625 321.24 579.352 319.575 576.427C317.955 573.502 317.145 570.127 317.145 566.302C317.145 562.477 317.977 559.102 319.642 556.177C321.352 553.252 323.67 551.002 326.595 549.427C329.52 547.807 332.782 546.997 336.382 546.997C339.982 546.997 343.245 547.807 346.17 549.427C349.095 551.002 351.39 553.252 353.055 556.177C354.765 559.102 355.62 562.477 355.62 566.302C355.62 570.127 354.742 573.502 352.987 576.427C351.277 579.352 348.937 581.625 345.967 583.245C343.042 584.82 339.757 585.608 336.112 585.608ZM336.112 577.372C337.822 577.372 339.42 576.967 340.905 576.157C342.435 575.302 343.65 574.042 344.55 572.377C345.45 570.712 345.9 568.687 345.9 566.302C345.9 562.747 344.955 560.025 343.065 558.135C341.22 556.2 338.947 555.232 336.247 555.232C333.547 555.232 331.275 556.2 329.43 558.135C327.63 560.025 326.73 562.747 326.73 566.302C326.73 569.857 327.607 572.602 329.362 574.537C331.162 576.427 333.412 577.372 336.112 577.372ZM372.002 535.05V585H362.552V535.05H372.002ZM397.943 585.608C394.343 585.608 391.103 584.82 388.223 583.245C385.343 581.625 383.071 579.352 381.406 576.427C379.786 573.502 378.976 570.127 378.976 566.302C378.976 562.477 379.808 559.102 381.473 556.177C383.183 553.252 385.501 551.002 388.426 549.427C391.351 547.807 394.613 546.997 398.213 546.997C401.813 546.997 405.076 547.807 408.001 549.427C410.926 551.002 413.221 553.252 414.886 556.177C416.596 559.102 417.451 562.477 417.451 566.302C417.451 570.127 416.573 573.502 414.818 576.427C413.108 579.352 410.768 581.625 407.798 583.245C404.873 584.82 401.588 585.608 397.943 585.608ZM397.943 577.372C399.653 577.372 401.251 576.967 402.736 576.157C404.266 575.302 405.481 574.042 406.381 572.377C407.281 570.712 407.731 568.687 407.731 566.302C407.731 562.747 406.786 560.025 404.896 558.135C403.051 556.2 400.778 555.232 398.078 555.232C395.378 555.232 393.106 556.2 391.261 558.135C389.461 560.025 388.561 562.747 388.561 566.302C388.561 569.857 389.438 572.602 391.193 574.537C392.993 576.427 395.243 577.372 397.943 577.372ZM405.976 537.412L390.451 544.5V537.75L405.976 529.717V537.412ZM439.03 546.997C441.82 546.997 444.273 547.56 446.388 548.685C448.503 549.765 450.168 551.182 451.383 552.937V547.605H460.9V585.27C460.9 588.735 460.203 591.818 458.808 594.518C457.413 597.263 455.32 599.423 452.53 600.998C449.74 602.618 446.365 603.428 442.405 603.428C437.095 603.428 432.73 602.19 429.31 599.715C425.935 597.24 424.023 593.865 423.573 589.59H432.955C433.45 591.3 434.508 592.65 436.128 593.64C437.793 594.675 439.795 595.193 442.135 595.193C444.88 595.193 447.108 594.36 448.818 592.695C450.528 591.075 451.383 588.6 451.383 585.27V579.465C450.168 581.22 448.48 582.682 446.32 583.852C444.205 585.023 441.775 585.608 439.03 585.608C435.88 585.608 433 584.798 430.39 583.177C427.78 581.557 425.71 579.285 424.18 576.36C422.695 573.39 421.953 569.992 421.953 566.167C421.953 562.387 422.695 559.035 424.18 556.11C425.71 553.185 427.758 550.935 430.323 549.36C432.933 547.785 435.835 546.997 439.03 546.997ZM451.383 566.302C451.383 564.007 450.933 562.05 450.033 560.43C449.133 558.765 447.918 557.505 446.388 556.65C444.858 555.75 443.215 555.3 441.46 555.3C439.705 555.3 438.085 555.727 436.6 556.582C435.115 557.437 433.9 558.697 432.955 560.362C432.055 561.982 431.605 563.917 431.605 566.167C431.605 568.417 432.055 570.397 432.955 572.107C433.9 573.772 435.115 575.055 436.6 575.955C438.13 576.855 439.75 577.305 441.46 577.305C443.215 577.305 444.858 576.877 446.388 576.022C447.918 575.122 449.133 573.862 450.033 572.242C450.933 570.577 451.383 568.597 451.383 566.302ZM474.922 543.15C473.257 543.15 471.862 542.632 470.737 541.597C469.657 540.517 469.117 539.19 469.117 537.615C469.117 536.04 469.657 534.735 470.737 533.7C471.862 532.62 473.257 532.08 474.922 532.08C476.587 532.08 477.96 532.62 479.04 533.7C480.165 534.735 480.727 536.04 480.727 537.615C480.727 539.19 480.165 540.517 479.04 541.597C477.96 542.632 476.587 543.15 474.922 543.15ZM479.58 547.605V585H470.13V547.605H479.58ZM486.486 566.302C486.486 562.432 487.274 559.057 488.849 556.177C490.424 553.252 492.606 551.002 495.396 549.427C498.186 547.807 501.381 546.997 504.981 546.997C509.616 546.997 513.441 548.167 516.456 550.507C519.516 552.802 521.564 556.042 522.599 560.227H512.406C511.866 558.607 510.944 557.347 509.639 556.447C508.379 555.502 506.804 555.03 504.914 555.03C502.214 555.03 500.076 556.02 498.501 558C496.926 559.935 496.139 562.702 496.139 566.302C496.139 569.857 496.926 572.625 498.501 574.605C500.076 576.54 502.214 577.507 504.914 577.507C508.739 577.507 511.236 575.797 512.406 572.377H522.599C521.564 576.427 519.516 579.645 516.456 582.03C513.396 584.415 509.571 585.608 504.981 585.608C501.381 585.608 498.186 584.82 495.396 583.245C492.606 581.625 490.424 579.375 488.849 576.495C487.274 573.57 486.486 570.172 486.486 566.302ZM546.127 585.608C542.527 585.608 539.287 584.82 536.407 583.245C533.527 581.625 531.254 579.352 529.589 576.427C527.969 573.502 527.159 570.127 527.159 566.302C527.159 562.477 527.992 559.102 529.657 556.177C531.367 553.252 533.684 551.002 536.609 549.427C539.534 547.807 542.797 546.997 546.397 546.997C549.997 546.997 553.259 547.807 556.184 549.427C559.109 551.002 561.404 553.252 563.069 556.177C564.779 559.102 565.634 562.477 565.634 566.302C565.634 570.127 564.757 573.502 563.002 576.427C561.292 579.352 558.952 581.625 555.982 583.245C553.057 584.82 549.772 585.608 546.127 585.608ZM546.127 577.372C547.837 577.372 549.434 576.967 550.919 576.157C552.449 575.302 553.664 574.042 554.564 572.377C555.464 570.712 555.914 568.687 555.914 566.302C555.914 562.747 554.969 560.025 553.079 558.135C551.234 556.2 548.962 555.232 546.262 555.232C543.562 555.232 541.289 556.2 539.444 558.135C537.644 560.025 536.744 562.747 536.744 566.302C536.744 569.857 537.622 572.602 539.377 574.537C541.177 576.427 543.427 577.372 546.127 577.372Z" fill="black"/>
<path d="M205.433 497V456.091H229.104V459.447H209.169V474.848H227.246V478.203H209.169V497H205.433ZM247.326 497.639C244.676 497.639 242.332 496.967 240.295 495.622C238.271 494.277 236.686 492.419 235.541 490.049C234.396 487.665 233.823 484.915 233.823 481.799C233.823 478.656 234.396 475.893 235.541 473.509C236.686 471.112 238.271 469.248 240.295 467.916C242.332 466.571 244.676 465.899 247.326 465.899C249.976 465.899 252.313 466.571 254.337 467.916C256.362 469.261 257.946 471.126 259.091 473.509C260.25 475.893 260.829 478.656 260.829 481.799C260.829 484.915 260.257 487.665 259.111 490.049C257.966 492.419 256.375 494.277 254.337 495.622C252.313 496.967 249.976 497.639 247.326 497.639ZM247.326 494.383C249.457 494.383 251.261 493.811 252.739 492.665C254.218 491.52 255.336 489.995 256.095 488.091C256.868 486.187 257.254 484.089 257.254 481.799C257.254 479.508 256.868 477.404 256.095 475.487C255.336 473.569 254.218 472.031 252.739 470.873C251.261 469.714 249.457 469.135 247.326 469.135C245.209 469.135 243.404 469.714 241.913 470.873C240.435 472.031 239.309 473.569 238.537 475.487C237.778 477.404 237.398 479.508 237.398 481.799C237.398 484.089 237.778 486.187 238.537 488.091C239.309 489.995 240.435 491.52 241.913 492.665C243.391 493.811 245.195 494.383 247.326 494.383ZM268.635 497V466.318H272.09V471.032H272.35C272.963 469.488 274.028 468.242 275.546 467.297C277.077 466.338 278.809 465.859 280.74 465.859C281.032 465.859 281.359 465.865 281.718 465.879C282.078 465.892 282.377 465.905 282.617 465.919V469.534C282.457 469.508 282.178 469.468 281.778 469.414C281.379 469.361 280.946 469.334 280.48 469.334C278.882 469.334 277.457 469.674 276.205 470.353C274.967 471.019 273.988 471.945 273.269 473.13C272.55 474.315 272.19 475.667 272.19 477.185V497H268.635ZM288.685 497V466.318H292.14V471.032H292.46C293.073 469.448 294.091 468.203 295.516 467.297C296.954 466.378 298.679 465.919 300.69 465.919C302.807 465.919 304.545 466.418 305.903 467.417C307.275 468.402 308.3 469.761 308.979 471.492H309.239C309.932 469.787 311.057 468.436 312.615 467.437C314.186 466.425 316.091 465.919 318.328 465.919C321.178 465.919 323.428 466.818 325.079 468.615C326.731 470.4 327.556 473.01 327.556 476.446V497H324.001V476.446C324.001 474.022 323.381 472.204 322.143 470.992C320.905 469.781 319.273 469.175 317.249 469.175C314.905 469.175 313.101 469.894 311.836 471.332C310.571 472.77 309.938 474.595 309.938 476.805V497H306.303V476.126C306.303 474.049 305.723 472.371 304.565 471.092C303.406 469.814 301.775 469.175 299.671 469.175C298.259 469.175 296.988 469.521 295.856 470.213C294.737 470.906 293.852 471.871 293.199 473.11C292.56 474.335 292.24 475.746 292.24 477.344V497H288.685ZM337.009 497V466.318H340.585V497H337.009ZM338.827 461.045C338.095 461.045 337.469 460.798 336.95 460.306C336.43 459.8 336.171 459.194 336.171 458.488C336.171 457.782 336.43 457.183 336.95 456.69C337.469 456.184 338.095 455.931 338.827 455.931C339.56 455.931 340.186 456.184 340.705 456.69C341.224 457.183 341.484 457.782 341.484 458.488C341.484 459.194 341.224 459.8 340.705 460.306C340.186 460.798 339.56 461.045 338.827 461.045ZM361.694 509.145C359.603 509.145 357.772 508.872 356.201 508.326C354.629 507.793 353.304 507.061 352.226 506.129C351.147 505.196 350.308 504.151 349.709 502.993L352.625 501.075C353.065 501.847 353.65 502.606 354.383 503.352C355.129 504.098 356.094 504.717 357.279 505.21C358.478 505.703 359.949 505.949 361.694 505.949C364.41 505.949 366.601 505.27 368.266 503.911C369.944 502.553 370.782 500.442 370.782 497.579V490.668H370.463C370.05 491.6 369.457 492.532 368.685 493.464C367.913 494.383 366.901 495.149 365.649 495.762C364.41 496.374 362.872 496.68 361.035 496.68C358.584 496.68 356.407 496.074 354.503 494.863C352.612 493.651 351.12 491.92 350.028 489.669C348.95 487.405 348.41 484.709 348.41 481.579C348.41 478.476 348.936 475.746 349.988 473.389C351.054 471.032 352.539 469.195 354.443 467.876C356.347 466.558 358.564 465.899 361.095 465.899C362.972 465.899 364.53 466.232 365.769 466.897C367.007 467.55 367.999 468.362 368.745 469.334C369.504 470.307 370.097 471.252 370.523 472.171H370.882V466.318H374.358V497.799C374.358 500.396 373.805 502.533 372.7 504.211C371.595 505.889 370.09 507.127 368.186 507.926C366.281 508.739 364.117 509.145 361.694 509.145ZM361.454 493.424C363.425 493.424 365.11 492.952 366.508 492.006C367.906 491.047 368.978 489.676 369.724 487.891C370.47 486.107 370.842 483.983 370.842 481.519C370.842 479.122 370.476 476.998 369.744 475.147C369.011 473.283 367.946 471.818 366.548 470.753C365.163 469.674 363.465 469.135 361.454 469.135C359.403 469.135 357.672 469.687 356.261 470.793C354.849 471.898 353.784 473.389 353.065 475.267C352.345 477.131 351.986 479.215 351.986 481.519C351.986 483.863 352.352 485.934 353.084 487.732C353.817 489.516 354.889 490.914 356.3 491.926C357.712 492.925 359.43 493.424 361.454 493.424ZM403.267 485.275V466.318H406.823V497H403.267V491.906H402.987C402.268 493.478 401.13 494.789 399.572 495.841C398.014 496.88 396.109 497.4 393.859 497.4C391.901 497.4 390.163 496.973 388.645 496.121C387.127 495.256 385.935 493.99 385.07 492.326C384.204 490.661 383.771 488.617 383.771 486.193V466.318H387.327V485.974C387.327 488.371 388.033 490.302 389.444 491.767C390.856 493.218 392.667 493.944 394.877 493.944C396.262 493.944 397.594 493.611 398.873 492.945C400.151 492.279 401.203 491.307 402.029 490.029C402.854 488.737 403.267 487.152 403.267 485.275ZM428.64 497.639C425.777 497.639 423.3 496.973 421.21 495.642C419.119 494.297 417.501 492.439 416.356 490.069C415.224 487.685 414.658 484.942 414.658 481.839C414.658 478.749 415.224 476.006 416.356 473.609C417.501 471.199 419.079 469.314 421.09 467.956C423.114 466.585 425.451 465.899 428.101 465.899C429.766 465.899 431.37 466.205 432.915 466.818C434.46 467.417 435.845 468.342 437.07 469.594C438.308 470.833 439.287 472.397 440.006 474.288C440.725 476.166 441.085 478.39 441.085 480.96V482.718H417.115V479.582H437.45C437.45 477.611 437.05 475.84 436.251 474.268C435.465 472.684 434.367 471.432 432.955 470.513C431.557 469.594 429.939 469.135 428.101 469.135C426.157 469.135 424.446 469.654 422.968 470.693C421.489 471.731 420.331 473.103 419.492 474.808C418.666 476.512 418.247 478.377 418.233 480.401V482.278C418.233 484.715 418.653 486.846 419.492 488.67C420.344 490.481 421.549 491.886 423.107 492.885C424.665 493.884 426.51 494.383 428.64 494.383C430.092 494.383 431.364 494.157 432.456 493.704C433.561 493.251 434.487 492.645 435.232 491.886C435.991 491.114 436.564 490.268 436.95 489.35L440.326 490.448C439.86 491.74 439.094 492.932 438.029 494.024C436.977 495.116 435.658 495.995 434.074 496.66C432.502 497.313 430.691 497.639 428.64 497.639ZM448.96 497V466.318H452.536V497H448.96ZM450.778 461.045C450.045 461.045 449.42 460.798 448.9 460.306C448.381 459.8 448.121 459.194 448.121 458.488C448.121 457.782 448.381 457.183 448.9 456.69C449.42 456.184 450.045 455.931 450.778 455.931C451.51 455.931 452.136 456.184 452.656 456.69C453.175 457.183 453.435 457.782 453.435 458.488C453.435 459.194 453.175 459.8 452.656 460.306C452.136 460.798 451.51 461.045 450.778 461.045ZM461.939 497V466.318H465.395V471.032H465.654C466.267 469.488 467.332 468.242 468.85 467.297C470.382 466.338 472.113 465.859 474.044 465.859C474.337 465.859 474.663 465.865 475.023 465.879C475.382 465.892 475.682 465.905 475.922 465.919V469.534C475.762 469.508 475.482 469.468 475.083 469.414C474.683 469.361 474.25 469.334 473.784 469.334C472.186 469.334 470.761 469.674 469.51 470.353C468.271 471.019 467.292 471.945 466.573 473.13C465.854 474.315 465.495 475.667 465.495 477.185V497H461.939ZM492.98 497.639C490.33 497.639 487.987 496.967 485.949 495.622C483.925 494.277 482.34 492.419 481.195 490.049C480.05 487.665 479.477 484.915 479.477 481.799C479.477 478.656 480.05 475.893 481.195 473.509C482.34 471.112 483.925 469.248 485.949 467.916C487.987 466.571 490.33 465.899 492.98 465.899C495.63 465.899 497.968 466.571 499.992 467.916C502.016 469.261 503.601 471.126 504.746 473.509C505.904 475.893 506.484 478.656 506.484 481.799C506.484 484.915 505.911 487.665 504.766 490.049C503.62 492.419 502.029 494.277 499.992 495.622C497.968 496.967 495.63 497.639 492.98 497.639ZM492.98 494.383C495.111 494.383 496.916 493.811 498.394 492.665C499.872 491.52 500.99 489.995 501.749 488.091C502.522 486.187 502.908 484.089 502.908 481.799C502.908 479.508 502.522 477.404 501.749 475.487C500.99 473.569 499.872 472.031 498.394 470.873C496.916 469.714 495.111 469.135 492.98 469.135C490.863 469.135 489.059 469.714 487.567 470.873C486.089 472.031 484.964 473.569 484.191 475.487C483.432 477.404 483.053 479.508 483.053 481.799C483.053 484.089 483.432 486.187 484.191 488.091C484.964 489.995 486.089 491.52 487.567 492.665C489.045 493.811 490.85 494.383 492.98 494.383Z" fill="black"/>
<path fill-rule="evenodd" clip-rule="evenodd" d="M505.509 345.416C492.311 345.857 488.492 349.634 487.58 362.291C484.006 364.456 483.866 366.808 484.205 371.361C478.049 372.909 476.689 375.615 478.299 384.017C466.746 373.617 461.07 372.17 452.142 376.002C442.475 371.8 438.845 370.898 433.368 370.095C425.469 382.372 421.682 404.119 422.611 405.744C423.539 407.368 417.915 417.906 418.814 418.4C416.383 418.551 417.05 422.388 417.337 422.408C417.624 422.427 412.274 434.222 408.267 439.705C406.061 441.772 404.292 442.604 399.829 443.291C398.735 443.798 398.713 444.343 399.829 445.822C400.028 445.621 406.873 444.574 409.321 443.291C411.77 442.007 409.542 441.273 410.798 440.97L418.814 423.673C419.391 421.823 422.611 422.408 422.611 422.408C422.611 422.408 420.654 418.106 421.345 418.4C423.383 414.264 423.867 411.891 424.509 407.642C425.885 407.124 426.581 406.779 427.251 405.744C427.251 405.744 432.736 374.947 433.368 376.002L443.704 380.22C425.05 398.38 424.223 416.528 436.111 436.119C446.782 433.826 452.371 430.105 461.845 420.298C461.914 422.574 461.789 423.83 461.212 425.994C460.824 426.718 460.157 427.47 459.947 427.681C459.736 427.892 459.827 428.861 459.947 429.58C458.436 435.911 457.26 439.166 454.462 444.345L453.197 444.978C453.197 444.978 452.699 445.062 452.986 446.244C453.272 447.426 448.197 449.811 446.657 450.463C445.139 451.143 445.814 452.783 446.025 452.994C446.236 453.205 448.72 452.824 450.032 452.15C450.868 452.381 451.206 452.401 451.72 452.361C452.223 451.587 452.405 451.076 452.564 450.041C453.383 450.349 453.783 450.343 454.462 450.041C454.715 449.247 454.703 448.779 454.884 447.931C455.065 447.084 456.067 447.653 456.572 447.298C456.634 446.684 456.619 446.37 456.572 445.822C458.676 441.02 460.824 438.555 461.845 433.377C462.055 432.314 461.886 430.77 462.267 430.634C462.648 430.499 463.967 430.423 464.165 430.213C464.364 430.002 463.532 426.838 463.532 426.838L464.376 419.455C469.458 414.068 470.54 405.845 471.759 389.08C474.618 391.487 475.757 392.639 480.829 394.986C487.233 394.865 488.795 392.621 490.322 386.759C490.494 383.532 490.589 381.721 490.322 378.322C491.531 377.495 492.165 376.838 493.275 375.58C493.166 377.379 493.565 378.388 493.697 380.22C494.229 380.626 494.496 380.854 494.54 381.275C494.983 382.508 494.648 383.106 494.962 384.228C496.551 389.905 501.854 393.121 508.251 392.666C509.954 405.37 510.871 411.467 513.736 412.916C515.776 418.318 516.45 421.168 517.532 426.205C517.093 427.398 517.111 428.947 517.111 428.947C517.111 428.947 517.48 430.222 518.587 430.423C519.695 430.625 521.329 448.353 521.329 448.564C521.329 448.775 520.697 450.041 520.697 450.041L519.853 451.306C519.662 452.036 519.784 452.456 520.275 453.205C520.765 453.953 521.489 453.492 522.173 453.205C523.039 452.841 523.617 452.245 523.65 451.306C523.909 443.824 520.991 430.253 521.962 430.845C521.962 430.845 523.024 429.657 523.017 428.736C523.007 427.449 521.118 426.416 521.118 426.416L516.478 412.916C517.84 410.737 515.726 404.572 510.572 391.189C507.713 384.865 498.337 383.384 498.337 383.384V380.642L502.134 375.58L502.767 369.884L503.822 368.197L504.032 375.158L505.931 378.322L506.775 381.486C506.333 383.051 516.362 392.5 526.814 389.08C530.572 404.163 532.676 412.574 535.462 411.861C536.819 415.112 537.782 420.72 537.782 420.72C537.782 420.72 537.112 422.539 537.361 424.095C537.609 425.651 539.681 424.939 539.681 424.939C543.133 433.081 545.078 435.498 548.54 441.603C549.074 441.903 547.544 444.678 548.118 444.978C549.042 445.461 550.65 444.134 550.65 444.134C552.933 447.771 556.054 447.148 555.923 446.244C557.748 445.824 551.398 441.001 550.65 440.759C549.901 440.518 551.704 438.861 550.65 438.228C549.595 437.595 541.988 425.551 542.423 424.939C542.858 424.327 543.035 422.613 542.423 421.353C541.965 420.41 540.525 419.455 540.525 419.455C539.434 414.975 538.829 412.757 537.782 411.439C537.729 404.332 535.744 399.038 529.556 387.814C525.691 382.563 511.204 381.275 511.204 381.275C511.204 381.275 508.961 379.851 509.306 378.955C513.048 379.871 515.147 380.274 518.798 379.588C523.548 378.694 529.978 373.47 529.978 373.47C530.264 381.132 532.931 392.244 533.986 392.666C535.04 393.088 534.344 397.39 536.306 398.361C538.268 399.332 536.668 392.355 536.306 392.244C536.923 387.653 531.665 369.884 531.665 369.884C531.245 368.907 517.837 369.226 512.892 375.158H510.572C516.006 366.416 511.31 355.683 509.728 356.173C508.145 356.664 510.203 349.712 509.306 349.423C508.408 349.135 510.993 348.791 510.993 348.791C518.31 358.034 540.221 350.58 540.103 350.056C540.103 350.056 548.534 350.318 551.282 353.009C551.586 349.05 550.747 347.053 546.22 344.15C544.55 340.246 543.068 338.117 539.259 334.447C544.33 326.572 547.325 323.91 552.548 317.783L553.392 304.283C566.514 288.951 569.061 284.716 566.259 283.822C560.965 282.561 556.865 291.819 550.228 302.384C550.228 302.384 550.439 315.041 549.806 315.673C549.173 316.306 542.499 325.21 537.15 332.548L536.095 331.705C539.5 325.521 543.267 313.775 543.267 313.775C543.556 313.697 534.407 301.282 534.407 301.282C534.407 301.282 540.875 277.297 532.72 269.219C523.688 260.273 531.936 279.836 531.032 301.752L539.47 313.775C539.715 317.593 537.011 323.188 533.564 330.228C517.466 324.695 503.27 329.538 508.251 344.15L507.407 345.416H505.509ZM530.611 337.405C527.756 332.424 525.603 330.754 519.431 332.548V332.975C518.244 336.642 529.732 337.988 530.611 337.405Z" fill="black"/>
<path d="M537.15 332.548C542.499 325.21 549.173 316.306 549.806 315.673C550.439 315.041 550.228 302.384 550.228 302.384C556.865 291.819 560.965 282.561 566.259 283.822C569.061 284.716 566.514 288.951 553.392 304.283L552.548 317.783C547.325 323.91 544.33 326.572 539.259 334.447C543.068 338.117 544.55 340.246 546.22 344.15C550.747 347.053 551.586 349.05 551.282 353.009C548.534 350.318 540.103 350.056 540.103 350.056C540.221 350.58 518.31 358.033 510.993 348.791C510.993 348.791 508.408 349.135 509.306 349.423C510.203 349.712 508.145 356.664 509.728 356.173C511.31 355.683 516.006 366.416 510.572 375.158H512.892C517.837 369.226 531.245 368.907 531.665 369.884C531.665 369.884 536.923 387.653 536.306 392.244C536.668 392.355 538.268 399.332 536.306 398.361C534.344 397.39 535.04 393.088 533.986 392.666C532.931 392.244 530.264 381.132 529.978 373.47C529.978 373.47 523.548 378.694 518.798 379.588C515.147 380.274 513.048 379.871 509.306 378.955C508.961 379.851 511.204 381.275 511.204 381.275C511.204 381.275 525.691 382.563 529.556 387.814C535.744 399.038 537.729 404.332 537.782 411.439C538.829 412.757 539.434 414.975 540.525 419.455C540.525 419.455 541.965 420.41 542.423 421.353C543.035 422.613 542.858 424.327 542.423 424.939C541.988 425.551 549.595 437.595 550.65 438.228C551.704 438.861 549.901 440.518 550.65 440.759C551.398 441.001 557.748 445.824 555.923 446.244C556.054 447.148 552.933 447.771 550.65 444.134C550.65 444.134 549.042 445.461 548.118 444.978C547.544 444.678 549.074 441.903 548.54 441.603C545.078 435.498 543.133 433.081 539.681 424.939C539.681 424.939 537.609 425.651 537.361 424.095C537.112 422.539 537.782 420.72 537.782 420.72C537.782 420.72 536.819 415.112 535.462 411.861C532.676 412.574 530.572 404.163 526.814 389.08C516.362 392.5 506.333 383.051 506.775 381.486L505.931 378.322L504.032 375.158L503.822 368.197L502.767 369.884L502.134 375.58L498.337 380.642V383.384C498.337 383.384 507.713 384.865 510.572 391.189C515.726 404.572 517.84 410.737 516.478 412.916L521.118 426.416C521.118 426.416 523.007 427.449 523.017 428.736C523.024 429.657 521.962 430.845 521.962 430.845C520.991 430.253 523.909 443.824 523.65 451.306C523.617 452.245 523.039 452.841 522.173 453.205C521.489 453.492 520.765 453.953 520.275 453.205C519.784 452.456 519.662 452.036 519.853 451.306L520.697 450.041C520.697 450.041 521.329 448.775 521.329 448.564C521.329 448.353 519.695 430.625 518.587 430.423C517.48 430.222 517.111 428.947 517.111 428.947C517.111 428.947 517.093 427.398 517.532 426.205C516.45 421.168 515.776 418.318 513.736 412.916C510.871 411.467 509.954 405.37 508.251 392.666C501.854 393.121 496.551 389.905 494.962 384.228C494.648 383.106 494.983 382.508 494.54 381.275C494.496 380.854 494.229 380.626 493.697 380.22C493.565 378.388 493.166 377.379 493.275 375.58C492.165 376.838 491.531 377.495 490.322 378.322C490.589 381.721 490.494 383.532 490.322 386.759C488.795 392.621 487.233 394.865 480.829 394.986C475.757 392.639 474.618 391.487 471.759 389.08C470.54 405.845 469.458 414.068 464.376 419.455L463.532 426.838C463.532 426.838 464.364 430.002 464.165 430.213C463.967 430.423 462.648 430.499 462.267 430.634C461.886 430.77 462.055 432.314 461.845 433.377C460.824 438.555 458.676 441.02 456.572 445.822C456.619 446.37 456.634 446.684 456.572 447.298C456.067 447.653 455.065 447.084 454.884 447.931C454.703 448.779 454.715 449.247 454.462 450.041C453.783 450.343 453.383 450.349 452.564 450.041C452.405 451.076 452.223 451.587 451.72 452.361C451.206 452.401 450.868 452.381 450.032 452.15C448.72 452.824 446.236 453.205 446.025 452.994C445.814 452.783 445.139 451.143 446.657 450.463C448.197 449.811 453.272 447.425 452.986 446.244C452.699 445.062 453.197 444.978 453.197 444.978L454.462 444.345C457.26 439.166 458.436 435.911 459.947 429.58C459.827 428.861 459.736 427.892 459.947 427.681C460.157 427.47 460.824 426.718 461.212 425.994C461.789 423.83 461.914 422.574 461.845 420.298C452.371 430.105 446.782 433.826 436.111 436.119C424.223 416.528 425.05 398.38 443.704 380.22L433.368 376.002C432.736 374.947 427.251 405.744 427.251 405.744C426.581 406.779 425.885 407.124 424.509 407.642C423.867 411.891 423.383 414.264 421.345 418.4C420.654 418.106 422.611 422.408 422.611 422.408C422.611 422.408 419.391 421.823 418.814 423.673L410.798 440.97C409.542 441.273 411.77 442.007 409.321 443.291C406.873 444.574 400.028 445.621 399.829 445.822C398.713 444.343 398.735 443.798 399.829 443.291C404.292 442.604 406.061 441.772 408.267 439.705C412.274 434.222 417.624 422.427 417.337 422.408C417.05 422.388 416.383 418.551 418.814 418.4C417.915 417.906 423.539 407.368 422.611 405.744C421.682 404.119 425.469 382.372 433.368 370.095C438.845 370.898 442.475 371.8 452.142 376.002C461.07 372.17 466.746 373.617 478.299 384.017C476.689 375.615 478.049 372.909 484.205 371.361C483.866 366.808 484.006 364.456 487.58 362.291C488.492 349.634 492.311 345.857 505.509 345.416H507.407L508.251 344.15C503.27 329.538 517.466 324.695 533.564 330.228C537.011 323.188 539.715 317.593 539.47 313.775L531.032 301.752C531.936 279.836 523.688 260.273 532.72 269.219C540.875 277.297 534.407 301.282 534.407 301.282C534.407 301.282 543.556 313.697 543.267 313.775C543.267 313.775 539.5 325.521 536.095 331.705M537.15 332.548C536.738 332.219 536.507 332.034 536.095 331.705M537.15 332.548L536.095 331.705M519.431 332.548C525.603 330.754 527.756 332.424 530.611 337.405C529.732 337.988 518.244 336.642 519.431 332.975V332.548Z" stroke="black" stroke-width="0.421875"/>
<path fill-rule="evenodd" clip-rule="evenodd" d="M161.772 343.416C174.97 343.857 178.789 347.634 179.701 360.291C183.276 362.456 183.415 364.808 183.076 369.361C189.232 370.909 190.592 373.615 188.983 382.017C200.535 371.617 206.211 370.17 215.139 374.002C224.807 369.8 228.436 368.898 233.913 368.095C241.812 380.372 245.599 402.119 244.671 403.744C243.743 405.368 249.367 415.906 248.468 416.4C250.898 416.551 250.232 420.388 249.944 420.408C249.657 420.427 255.008 432.222 259.014 437.705C261.22 439.772 262.989 440.604 267.452 441.291C268.547 441.798 268.569 442.343 267.452 443.822C267.253 443.621 260.408 442.574 257.96 441.291C255.511 440.007 257.739 439.273 256.483 438.97L248.468 421.673C247.89 419.823 244.671 420.408 244.671 420.408C244.671 420.408 246.627 416.106 245.936 416.4C243.898 412.264 243.414 409.891 242.772 405.642C241.397 405.124 240.7 404.779 240.03 403.744C240.03 403.744 234.546 372.947 233.913 374.002L223.577 378.22C242.231 396.38 243.058 414.528 231.171 434.119C220.499 431.826 214.911 428.105 205.436 418.298C205.368 420.574 205.493 421.83 206.069 423.994C206.458 424.718 207.124 425.47 207.335 425.681C207.546 425.892 207.455 426.861 207.335 427.58C208.845 433.911 210.021 437.166 212.819 442.345L214.085 442.978C214.085 442.978 214.582 443.062 214.296 444.244C214.009 445.426 219.085 447.811 220.624 448.463C222.142 449.143 221.468 450.783 221.257 450.994C221.046 451.205 218.561 450.824 217.249 450.15C216.413 450.381 216.075 450.401 215.561 450.361C215.059 449.587 214.876 449.076 214.718 448.041C213.898 448.349 213.498 448.343 212.819 448.041C212.566 447.247 212.578 446.779 212.397 445.931C212.216 445.084 211.214 445.653 210.71 445.298C210.647 444.684 210.662 444.37 210.71 443.822C208.606 439.02 206.457 436.555 205.436 431.377C205.227 430.314 205.395 428.77 205.014 428.634C204.633 428.499 203.314 428.423 203.116 428.213C202.918 428.002 203.749 424.838 203.749 424.838L202.905 417.455C197.823 412.068 196.741 403.845 195.522 387.08C192.664 389.487 191.524 390.639 186.452 392.986C180.048 392.865 178.486 390.621 176.96 384.759C176.787 381.532 176.693 379.721 176.96 376.322C175.751 375.495 175.116 374.838 174.007 373.58C174.116 375.379 173.716 376.388 173.585 378.22C173.052 378.626 172.785 378.854 172.741 379.275C172.298 380.508 172.633 381.106 172.319 382.228C170.731 387.905 165.427 391.121 159.03 390.666C157.328 403.37 156.41 409.467 153.546 410.916C151.505 416.318 150.831 419.168 149.749 424.205C150.189 425.398 150.171 426.947 150.171 426.947C150.171 426.947 149.802 428.222 148.694 428.423C147.587 428.625 145.952 446.353 145.952 446.564C145.952 446.775 146.585 448.041 146.585 448.041L147.428 449.306C147.619 450.036 147.497 450.456 147.007 451.205C146.516 451.953 145.792 451.492 145.108 451.205C144.242 450.841 143.664 450.245 143.632 449.306C143.373 441.824 146.29 428.253 145.319 428.845C145.319 428.845 144.257 427.657 144.264 426.736C144.274 425.449 146.163 424.416 146.163 424.416L150.803 410.916C149.442 408.737 151.555 402.572 156.71 389.189C159.569 382.865 168.944 381.384 168.944 381.384V378.642L165.147 373.58L164.514 367.884L163.46 366.197L163.249 373.158L161.35 376.322L160.507 379.486C160.949 381.051 150.92 390.5 140.468 387.08C136.709 402.163 134.605 410.574 131.819 409.861C130.462 413.112 129.499 418.72 129.499 418.72C129.499 418.72 130.169 420.539 129.921 422.095C129.673 423.651 127.6 422.939 127.6 422.939C124.148 431.081 122.203 433.498 118.741 439.603C118.207 439.903 119.737 442.678 119.163 442.978C118.239 443.461 116.632 442.134 116.632 442.134C114.349 445.771 111.228 445.148 111.358 444.244C109.534 443.824 115.883 439.001 116.632 438.759C117.38 438.518 115.577 436.861 116.632 436.228C117.686 435.595 125.293 423.551 124.858 422.939C124.423 422.327 124.246 420.613 124.858 419.353C125.316 418.41 126.757 417.455 126.757 417.455C127.847 412.975 128.452 410.757 129.499 409.439C129.552 402.332 131.537 397.038 137.725 385.814C141.591 380.563 156.077 379.275 156.077 379.275C156.077 379.275 158.32 377.851 157.975 376.955C154.233 377.871 152.134 378.274 148.483 377.588C143.734 376.694 137.303 371.47 137.303 371.47C137.017 379.132 134.35 390.244 133.296 390.666C132.241 391.088 132.937 395.39 130.975 396.361C129.014 397.332 130.613 390.355 130.975 390.244C130.358 385.653 135.616 367.884 135.616 367.884C136.036 366.907 149.444 367.226 154.389 373.158H156.71C151.275 364.416 155.971 353.683 157.553 354.173C159.136 354.664 157.078 347.712 157.975 347.423C158.873 347.135 156.288 346.791 156.288 346.791C148.971 356.034 127.06 348.58 127.178 348.056C127.178 348.056 118.748 348.318 115.999 351.009C115.695 347.05 116.534 345.053 121.061 342.15C122.732 338.246 124.214 336.117 128.022 332.447C122.951 324.572 119.957 321.91 114.733 315.783L113.889 302.283C100.767 286.951 98.22 282.716 101.022 281.822C106.316 280.561 110.417 289.819 117.053 300.384C117.053 300.384 116.843 313.041 117.475 313.673C118.108 314.306 124.783 323.21 130.132 330.548L131.186 329.705C127.782 323.521 124.014 311.775 124.014 311.775C123.725 311.697 132.874 299.282 132.874 299.282C132.874 299.282 126.406 275.297 134.561 267.219C143.593 258.273 135.346 277.836 136.249 299.752L127.811 311.775C127.566 315.593 130.27 321.188 133.718 328.228C149.815 322.695 164.011 327.538 159.03 342.15L159.874 343.416H161.772ZM136.671 335.405C139.525 330.424 141.679 328.754 147.85 330.548V330.975C149.037 334.642 137.549 335.988 136.671 335.405Z" fill="black"/>
<path d="M130.132 330.548C124.783 323.21 118.108 314.306 117.475 313.673C116.843 313.041 117.053 300.384 117.053 300.384C110.417 289.819 106.316 280.561 101.022 281.822C98.22 282.716 100.767 286.951 113.889 302.283L114.733 315.783C119.957 321.91 122.951 324.572 128.022 332.447C124.214 336.117 122.732 338.246 121.061 342.15C116.534 345.053 115.695 347.05 115.999 351.009C118.748 348.318 127.178 348.056 127.178 348.056C127.06 348.58 148.971 356.033 156.288 346.791C156.288 346.791 158.873 347.135 157.975 347.423C157.078 347.712 159.136 354.664 157.553 354.173C155.971 353.683 151.275 364.416 156.71 373.158H154.389C149.444 367.226 136.036 366.907 135.616 367.884C135.616 367.884 130.358 385.653 130.975 390.244C130.613 390.355 129.014 397.332 130.975 396.361C132.937 395.39 132.241 391.088 133.296 390.666C134.35 390.244 137.017 379.132 137.303 371.47C137.303 371.47 143.734 376.694 148.483 377.588C152.134 378.274 154.233 377.871 157.975 376.955C158.32 377.851 156.077 379.275 156.077 379.275C156.077 379.275 141.591 380.563 137.725 385.814C131.537 397.038 129.552 402.332 129.499 409.439C128.452 410.757 127.847 412.975 126.757 417.455C126.757 417.455 125.316 418.41 124.858 419.353C124.246 420.613 124.423 422.327 124.858 422.939C125.293 423.551 117.686 435.595 116.632 436.228C115.577 436.861 117.38 438.518 116.632 438.759C115.883 439.001 109.534 443.824 111.358 444.244C111.228 445.148 114.349 445.771 116.632 442.134C116.632 442.134 118.239 443.461 119.163 442.978C119.737 442.678 118.207 439.903 118.741 439.603C122.203 433.498 124.148 431.081 127.6 422.939C127.6 422.939 129.673 423.651 129.921 422.095C130.169 420.539 129.499 418.72 129.499 418.72C129.499 418.72 130.462 413.112 131.819 409.861C134.605 410.574 136.709 402.163 140.468 387.08C150.92 390.5 160.949 381.051 160.507 379.486L161.35 376.322L163.249 373.158L163.46 366.197L164.514 367.884L165.147 373.58L168.944 378.642V381.384C168.944 381.384 159.569 382.865 156.71 389.189C151.555 402.572 149.442 408.737 150.803 410.916L146.163 424.416C146.163 424.416 144.274 425.449 144.264 426.736C144.257 427.657 145.319 428.845 145.319 428.845C146.29 428.253 143.373 441.824 143.632 449.306C143.664 450.245 144.242 450.841 145.108 451.205C145.792 451.492 146.516 451.953 147.007 451.205C147.497 450.456 147.619 450.036 147.428 449.306L146.585 448.041C146.585 448.041 145.952 446.775 145.952 446.564C145.952 446.353 147.587 428.625 148.694 428.423C149.802 428.222 150.171 426.947 150.171 426.947C150.171 426.947 150.189 425.398 149.749 424.205C150.831 419.168 151.505 416.318 153.546 410.916C156.41 409.467 157.328 403.37 159.03 390.666C165.427 391.121 170.731 387.905 172.319 382.228C172.633 381.106 172.298 380.508 172.741 379.275C172.785 378.854 173.052 378.626 173.585 378.22C173.716 376.388 174.116 375.379 174.007 373.58C175.116 374.838 175.751 375.495 176.96 376.322C176.693 379.721 176.787 381.532 176.96 384.759C178.486 390.621 180.048 392.865 186.452 392.986C191.524 390.639 192.664 389.487 195.522 387.08C196.741 403.845 197.823 412.068 202.905 417.455L203.749 424.838C203.749 424.838 202.918 428.002 203.116 428.213C203.314 428.423 204.633 428.499 205.014 428.634C205.395 428.77 205.227 430.314 205.436 431.377C206.457 436.555 208.606 439.02 210.71 443.822C210.662 444.37 210.647 444.684 210.71 445.298C211.214 445.653 212.216 445.084 212.397 445.931C212.578 446.779 212.566 447.247 212.819 448.041C213.498 448.343 213.898 448.349 214.718 448.041C214.876 449.076 215.059 449.587 215.561 450.361C216.075 450.401 216.413 450.381 217.249 450.15C218.561 450.824 221.046 451.205 221.257 450.994C221.468 450.783 222.142 449.143 220.624 448.463C219.085 447.811 214.009 445.425 214.296 444.244C214.582 443.062 214.085 442.978 214.085 442.978L212.819 442.345C210.021 437.166 208.845 433.911 207.335 427.58C207.455 426.861 207.546 425.892 207.335 425.681C207.124 425.47 206.458 424.718 206.069 423.994C205.493 421.83 205.368 420.574 205.436 418.298C214.911 428.105 220.499 431.826 231.171 434.119C243.058 414.528 242.231 396.38 223.577 378.22L233.913 374.002C234.546 372.947 240.03 403.744 240.03 403.744C240.7 404.779 241.397 405.124 242.772 405.642C243.414 409.891 243.898 412.264 245.936 416.4C246.627 416.106 244.671 420.408 244.671 420.408C244.671 420.408 247.89 419.823 248.468 421.673L256.483 438.97C257.739 439.273 255.511 440.007 257.96 441.291C260.408 442.574 267.253 443.621 267.452 443.822C268.569 442.343 268.547 441.798 267.452 441.291C262.989 440.604 261.22 439.772 259.014 437.705C255.008 432.222 249.657 420.427 249.944 420.408C250.232 420.388 250.898 416.551 248.468 416.4C249.367 415.906 243.743 405.368 244.671 403.744C245.599 402.119 241.812 380.372 233.913 368.095C228.436 368.898 224.807 369.8 215.139 374.002C206.211 370.17 200.535 371.617 188.983 382.017C190.592 373.615 189.232 370.909 183.076 369.361C183.415 364.808 183.276 362.456 179.701 360.291C178.789 347.634 174.97 343.857 161.772 343.416H159.874L159.03 342.15C164.011 327.538 149.815 322.695 133.718 328.228C130.27 321.188 127.566 315.593 127.811 311.775L136.249 299.752C135.346 277.836 143.593 258.273 134.561 267.219C126.406 275.297 132.874 299.282 132.874 299.282C132.874 299.282 123.725 311.697 124.014 311.775C124.014 311.775 127.782 323.521 131.186 329.705M130.132 330.548C130.543 330.219 130.774 330.034 131.186 329.705M130.132 330.548L131.186 329.705M147.85 330.548C141.679 328.754 139.526 330.424 136.671 335.405C137.549 335.988 149.037 334.642 147.85 330.975V330.548Z" stroke="black" stroke-width="0.421875"/>
<path fill-rule="evenodd" clip-rule="evenodd" d="M420.025 210.108C384.83 211.286 374.646 221.356 372.213 255.108C362.681 260.884 362.309 267.155 363.213 279.296C346.798 283.423 343.171 290.64 347.463 313.046C316.657 285.313 301.519 281.454 277.711 291.671C251.932 280.468 242.254 278.06 227.649 275.921C206.584 308.658 196.487 366.651 198.961 370.983C201.436 375.316 186.439 403.416 188.836 404.733C182.355 405.136 184.133 415.369 184.899 415.421C185.665 415.473 171.396 446.925 160.711 461.546C154.829 467.057 150.112 469.278 138.211 471.108C135.292 472.463 135.234 473.915 138.211 477.858C138.741 477.322 156.994 474.53 163.524 471.108C170.054 467.687 164.113 465.727 167.461 464.921L188.836 418.796C190.377 413.861 198.961 415.421 198.961 415.421C198.961 415.421 193.745 403.948 195.586 404.733C201.022 393.704 202.312 387.376 204.024 376.046C207.692 374.663 209.55 373.743 211.336 370.983C211.336 370.983 225.962 288.858 227.649 291.671L255.212 302.921C205.466 351.346 203.262 399.741 234.962 451.983C263.419 445.868 278.322 435.946 303.587 409.796C303.77 415.863 303.436 419.214 301.899 424.983C300.863 426.914 299.087 428.921 298.524 429.483C297.962 430.046 298.204 432.631 298.524 434.546C294.496 451.428 291.361 460.11 283.899 473.921L280.524 475.608C280.524 475.608 279.198 475.832 279.962 478.983C280.725 482.135 267.191 488.496 263.087 490.233C259.038 492.049 260.837 496.421 261.399 496.983C261.962 497.546 268.588 496.531 272.087 494.733C274.315 495.349 275.217 495.401 276.587 495.296C277.927 493.231 278.413 491.869 278.837 489.108C281.022 489.931 282.089 489.916 283.899 489.108C284.574 486.991 284.541 485.743 285.024 483.483C285.507 481.223 288.179 482.743 289.524 481.796C289.691 480.156 289.651 479.319 289.524 477.858C295.135 465.052 300.864 458.481 303.587 444.671C304.145 441.836 303.696 437.72 304.712 437.358C305.727 436.997 309.245 436.796 309.774 436.233C310.303 435.671 308.087 427.233 308.087 427.233L310.337 407.546C323.889 393.182 326.773 371.253 330.024 326.546C337.647 332.966 340.685 336.037 354.212 342.296C371.288 341.974 375.454 335.99 379.524 320.358C379.985 311.751 380.236 306.923 379.524 297.858C382.748 295.652 384.44 293.902 387.399 290.546C387.108 295.345 388.175 298.035 388.524 302.921C389.944 304.001 390.657 304.612 390.774 305.733C391.955 309.022 391.062 310.617 391.899 313.608C396.135 328.747 410.277 337.324 427.337 336.108C431.876 369.985 434.322 386.244 441.962 390.108C447.403 404.515 449.201 412.115 452.087 425.546C450.913 428.729 450.962 432.858 450.962 432.858C450.962 432.858 451.946 436.258 454.899 436.796C457.852 437.334 462.212 484.608 462.212 485.171C462.212 485.733 460.524 489.108 460.524 489.108L458.274 492.483C457.765 494.429 458.092 495.551 459.399 497.546C460.706 499.541 462.639 498.311 464.462 497.546C466.771 496.577 468.312 494.987 468.399 492.483C469.089 472.531 461.31 436.341 463.899 437.921C463.899 437.921 466.73 434.752 466.712 432.296C466.685 428.865 461.649 426.108 461.649 426.108L449.274 390.108C452.906 384.299 447.27 367.858 433.524 332.171C425.9 315.306 400.899 311.358 400.899 311.358V304.046L411.024 290.546L412.712 275.358L415.524 270.858L416.087 289.421L421.149 297.858L423.399 306.296C422.221 310.47 448.965 335.668 476.837 326.546C486.858 366.768 492.469 389.197 499.899 387.296C503.518 395.966 506.087 410.921 506.087 410.921C506.087 410.921 504.3 415.771 504.962 419.921C505.623 424.07 511.149 422.171 511.149 422.171C520.355 443.882 525.541 450.329 534.774 466.608C536.197 467.408 532.118 474.808 533.649 475.608C536.111 476.896 540.399 473.358 540.399 473.358C546.487 483.055 554.809 481.393 554.462 478.983C559.327 477.865 542.395 465.003 540.399 464.358C538.403 463.714 543.212 459.296 540.399 457.608C537.587 455.921 517.301 423.803 518.462 422.171C519.622 420.539 520.093 415.968 518.462 412.608C517.24 410.093 513.399 407.546 513.399 407.546C510.492 395.6 508.878 389.686 506.087 386.171C505.943 367.219 500.651 353.1 484.149 323.171C473.842 309.167 435.212 305.733 435.212 305.733C435.212 305.733 429.23 301.937 430.149 299.546C440.128 301.988 445.725 303.065 455.462 301.233C468.127 298.85 485.274 284.921 485.274 284.921C486.038 305.351 493.149 334.983 495.962 336.108C498.774 337.233 496.918 348.707 502.149 351.296C507.381 353.884 503.116 335.279 502.149 334.983C503.795 322.742 489.774 275.358 489.774 275.358C488.654 272.752 452.899 273.603 439.712 289.421H433.524C448.016 266.109 435.493 237.487 431.274 238.796C427.055 240.104 432.542 221.564 430.149 220.796C427.756 220.027 434.649 219.108 434.649 219.108C454.159 243.756 512.589 223.879 512.274 222.483C512.274 222.483 534.756 223.182 542.087 230.358C542.896 219.799 540.659 214.474 528.587 206.733C524.132 196.324 520.18 190.646 510.024 180.858C523.546 159.859 531.532 152.761 545.462 136.421L547.712 100.421C582.705 59.5352 589.497 48.2424 582.024 45.8583C567.908 42.4962 556.973 67.1844 539.274 95.3583C539.274 95.3583 539.837 129.108 538.149 130.796C536.462 132.483 518.663 156.227 504.399 175.796L501.587 173.546C510.666 157.056 520.712 125.733 520.712 125.733C521.482 125.525 497.087 92.4182 497.087 92.4182C497.087 92.4182 514.333 28.4575 492.587 6.91818C468.501 -16.9382 490.495 35.2291 488.087 93.6708L510.587 125.733C511.239 135.915 504.03 150.835 494.837 169.608C451.91 154.853 414.054 167.767 427.337 206.733L425.087 210.108H420.025ZM486.962 188.745C479.349 175.464 473.607 171.011 457.149 175.796V176.933C453.985 186.713 484.62 190.302 486.962 188.745Z" fill="#E22121"/>
<path d="M504.399 175.796C518.663 156.227 536.462 132.483 538.149 130.796C539.837 129.108 539.274 95.3583 539.274 95.3583C556.973 67.1844 567.908 42.4962 582.024 45.8583C589.497 48.2424 582.705 59.5352 547.712 100.421L545.462 136.421C531.532 152.761 523.546 159.859 510.024 180.858C520.18 190.646 524.132 196.324 528.587 206.733C540.659 214.474 542.896 219.799 542.087 230.358C534.756 223.182 512.274 222.483 512.274 222.483C512.589 223.879 454.159 243.756 434.649 219.108C434.649 219.108 427.756 220.027 430.149 220.796C432.542 221.564 427.055 240.104 431.274 238.796C435.493 237.487 448.016 266.109 433.524 289.421H439.712C452.899 273.603 488.654 272.752 489.774 275.358C489.774 275.358 503.795 322.742 502.149 334.983C503.116 335.279 507.381 353.884 502.149 351.296C496.918 348.707 498.774 337.233 495.962 336.108C493.149 334.983 486.038 305.351 485.274 284.921C485.274 284.921 468.127 298.85 455.462 301.233C445.725 303.065 440.128 301.988 430.149 299.546C429.23 301.937 435.212 305.733 435.212 305.733C435.212 305.733 473.842 309.167 484.149 323.171C500.651 353.1 505.943 367.219 506.087 386.171C508.878 389.686 510.492 395.6 513.399 407.546C513.399 407.546 517.24 410.093 518.462 412.608C520.093 415.968 519.622 420.539 518.462 422.171C517.301 423.803 537.587 455.921 540.399 457.608C543.212 459.296 538.403 463.714 540.399 464.358C542.395 465.003 559.327 477.865 554.462 478.983C554.809 481.393 546.487 483.055 540.399 473.358C540.399 473.358 536.111 476.896 533.649 475.608C532.118 474.808 536.197 467.408 534.774 466.608C525.541 450.329 520.355 443.882 511.149 422.171C511.149 422.171 505.623 424.07 504.962 419.921C504.3 415.771 506.087 410.921 506.087 410.921C506.087 410.921 503.518 395.966 499.899 387.296C492.469 389.197 486.858 366.768 476.837 326.546C448.965 335.668 422.221 310.47 423.399 306.296L421.149 297.858L416.087 289.421L415.524 270.858L412.712 275.358L411.024 290.546L400.899 304.046V311.358C400.899 311.358 425.9 315.306 433.524 332.171C447.27 367.858 452.906 384.299 449.274 390.108L461.649 426.108C461.649 426.108 466.685 428.865 466.712 432.296C466.73 434.752 463.899 437.921 463.899 437.921C461.31 436.341 469.089 472.531 468.399 492.483C468.312 494.987 466.771 496.577 464.462 497.546C462.639 498.311 460.706 499.541 459.399 497.546C458.092 495.551 457.765 494.429 458.274 492.483L460.524 489.108C460.524 489.108 462.212 485.733 462.212 485.171C462.212 484.608 457.852 437.334 454.899 436.796C451.946 436.258 450.962 432.858 450.962 432.858C450.962 432.858 450.913 428.729 452.087 425.546C449.201 412.115 447.403 404.515 441.962 390.108C434.322 386.244 431.876 369.985 427.337 336.108C410.277 337.324 396.135 328.747 391.899 313.608C391.062 310.617 391.955 309.022 390.774 305.733C390.657 304.612 389.944 304.002 388.524 302.921C388.175 298.035 387.108 295.345 387.399 290.546C384.44 293.902 382.748 295.652 379.524 297.858C380.236 306.923 379.985 311.751 379.524 320.358C375.454 335.99 371.288 341.974 354.212 342.296C340.685 336.037 337.647 332.966 330.024 326.546C326.773 371.253 323.889 393.182 310.337 407.546L308.087 427.233C308.087 427.233 310.303 435.671 309.774 436.233C309.245 436.796 305.727 436.997 304.712 437.358C303.696 437.72 304.145 441.836 303.587 444.671C300.864 458.481 295.135 465.052 289.524 477.858C289.651 479.319 289.691 480.156 289.524 481.796C288.179 482.743 285.507 481.223 285.024 483.483C284.541 485.743 284.574 486.991 283.899 489.108C282.089 489.916 281.022 489.931 278.837 489.108C278.413 491.869 277.927 493.231 276.587 495.296C275.217 495.401 274.315 495.349 272.087 494.733C268.588 496.531 261.962 497.546 261.399 496.983C260.837 496.421 259.038 492.049 263.087 490.233C267.191 488.496 280.725 482.135 279.962 478.983C279.198 475.832 280.524 475.608 280.524 475.608L283.899 473.921C291.361 460.11 294.496 451.428 298.524 434.546C298.204 432.631 297.962 430.046 298.524 429.483C299.087 428.921 300.863 426.914 301.899 424.983C303.436 419.214 303.77 415.863 303.587 409.796C278.322 435.946 263.419 445.868 234.962 451.983C203.262 399.741 205.466 351.346 255.212 302.921L227.649 291.671C225.962 288.858 211.336 370.983 211.336 370.983C209.55 373.743 207.692 374.663 204.024 376.046C202.312 387.376 201.022 393.704 195.586 404.733C193.745 403.948 198.961 415.421 198.961 415.421C198.961 415.421 190.377 413.861 188.836 418.796L167.461 464.921C164.113 465.727 170.054 467.687 163.524 471.108C156.994 474.53 138.741 477.322 138.211 477.858C135.234 473.915 135.292 472.463 138.211 471.108C150.112 469.278 154.829 467.057 160.711 461.546C171.396 446.925 185.665 415.473 184.899 415.421C184.133 415.369 182.355 405.136 188.836 404.733C186.439 403.416 201.436 375.316 198.961 370.983C196.487 366.651 206.584 308.658 227.649 275.921C242.254 278.06 251.932 280.468 277.711 291.671C301.519 281.454 316.657 285.313 347.463 313.046C343.171 290.64 346.798 283.423 363.213 279.296C362.309 267.155 362.681 260.884 372.213 255.108C374.646 221.356 384.83 211.286 420.025 210.108H425.087L427.337 206.733C414.054 167.767 451.91 154.853 494.837 169.608C504.03 150.835 511.239 135.915 510.587 125.733L488.087 93.6708C490.495 35.2291 468.501 -16.9382 492.587 6.91818C514.333 28.4575 497.087 92.4182 497.087 92.4182C497.087 92.4182 521.482 125.525 520.712 125.733C520.712 125.733 510.666 157.056 501.587 173.546M504.399 175.796C503.301 174.917 502.685 174.424 501.587 173.546M504.399 175.796L501.587 173.546M457.149 175.796C473.607 171.011 479.349 175.464 486.962 188.745C484.62 190.302 453.985 186.713 457.149 176.933V175.796Z" stroke="black" stroke-width="1.125"/>
</svg>
