<svg width="54" height="54" viewBox="0 0 54 54" fill="none" xmlns="http://www.w3.org/2000/svg">
<rect width="54" height="54" rx="10" fill="#6D8194"/>
<path d="M35.4373 21.4315L25.1188 11.113C24.4857 10.4802 23.6271 10.1248 22.7319 10.125C21.8367 10.1252 20.9783 10.481 20.3455 11.1142C19.7126 11.7473 19.3572 12.6059 19.3574 13.5011C19.3576 14.3963 19.7134 15.2547 20.3466 15.8875L30.6651 26.2038C30.7698 26.3083 30.853 26.4324 30.9097 26.5691C30.9664 26.7058 30.9956 26.8523 30.9956 27.0003C30.9956 27.1483 30.9664 27.2948 30.9097 27.4315C30.853 27.5681 30.7698 27.6923 30.6651 27.7968L20.3466 38.113C19.7134 38.7459 19.3576 39.6043 19.3574 40.4995C19.3572 41.3947 19.7126 42.2533 20.3455 42.8864C20.9783 43.5196 21.8367 43.8754 22.7319 43.8756C23.6271 43.8758 24.4857 43.5204 25.1188 42.8875L35.4373 32.569C36.9116 31.0907 37.7395 29.0881 37.7395 27.0003C37.7395 24.9125 36.9116 22.9099 35.4373 21.4315Z" fill="white"/>
</svg>
