<svg width="32" height="33" viewBox="0 0 32 33" fill="none" xmlns="http://www.w3.org/2000/svg">
<g clip-path="url(#clip0_1091_2296)">
<path fill-rule="evenodd" clip-rule="evenodd" d="M16.0132 0.5C7.15833 0.5 0 7.7111 0 16.6322C0 23.7633 4.58659 29.7997 10.9494 31.9362C11.7449 32.0968 12.0363 31.589 12.0363 31.1619C12.0363 30.7879 12.0101 29.506 12.0101 28.1703C7.5556 29.132 6.62799 26.2472 6.62799 26.2472C5.91212 24.3776 4.85143 23.8971 4.85143 23.8971C3.39348 22.9088 4.95763 22.9088 4.95763 22.9088C6.57489 23.0157 7.4235 24.5648 7.4235 24.5648C8.85491 27.0218 11.1615 26.3276 12.0894 25.9001C12.2218 24.8585 12.6463 24.1373 13.097 23.7368C9.54422 23.3628 5.80625 21.974 5.80625 15.7774C5.80625 14.0146 6.44214 12.5724 7.44973 11.4507C7.29075 11.0502 6.73386 9.39391 7.60903 7.17715C7.60903 7.17715 8.96111 6.74973 12.0098 8.83309C13.315 8.47996 14.6611 8.30032 16.0132 8.29881C17.3653 8.29881 18.7436 8.48597 20.0164 8.83309C23.0654 6.74973 24.4175 7.17715 24.4175 7.17715C25.2926 9.39391 24.7354 11.0502 24.5764 11.4507C25.6106 12.5724 26.2202 14.0146 26.2202 15.7774C26.2202 21.974 22.4823 23.3359 18.9029 23.7368C19.4864 24.2442 19.9898 25.2056 19.9898 26.7281C19.9898 28.8914 19.9636 30.6277 19.9636 31.1616C19.9636 31.589 20.2553 32.0968 21.0505 31.9365C27.4133 29.7994 31.9999 23.7633 31.9999 16.6322C32.0261 7.7111 24.8416 0.5 16.0132 0.5Z" fill="#24292F"/>
</g>
<defs>
<clipPath id="clip0_1091_2296">
<rect width="32" height="32" fill="white" transform="translate(0 0.5)"/>
</clipPath>
</defs>
</svg>
