<svg width="32" height="32" viewBox="0 0 32 32" fill="none" xmlns="http://www.w3.org/2000/svg">
<path d="M11.0302 4.08393C9.75336 4.14417 8.88143 4.34793 8.11918 4.64745C7.33029 4.95489 6.66165 5.36746 5.99636 6.03515C5.33107 6.70283 4.92139 7.37196 4.61611 8.16205C4.32066 8.92598 4.1205 9.79862 4.0641 11.0762C4.0077 12.3537 3.99522 12.7643 4.00146 16.0231C4.0077 19.2818 4.0221 19.6903 4.08402 20.9705C4.14498 22.2471 4.34802 23.1188 4.64755 23.8812C4.95547 24.6701 5.36755 25.3385 6.03548 26.0041C6.70341 26.6696 7.37205 27.0783 8.16406 27.3841C8.92727 27.679 9.80016 27.8802 11.0775 27.9361C12.3547 27.992 12.7659 28.005 16.0237 27.9987C19.2815 27.9925 19.6916 27.9781 20.9715 27.9174C22.2515 27.8566 23.1186 27.6522 23.8813 27.3541C24.6702 27.0454 25.3391 26.6341 26.0042 25.9659C26.6692 25.2977 27.0787 24.6281 27.3837 23.8376C27.6794 23.0744 27.8803 22.2015 27.9357 20.9251C27.9916 19.6442 28.0048 19.2353 27.9986 15.977C27.9923 12.7187 27.9777 12.3103 27.917 11.0306C27.8563 9.75086 27.653 8.88181 27.3537 8.11885C27.0453 7.32996 26.6337 6.66203 25.966 5.99603C25.2983 5.33002 24.6282 4.92081 23.8379 4.61649C23.0742 4.32105 22.2018 4.11969 20.9245 4.06449C19.6472 4.00929 19.2361 3.99513 15.9771 4.00137C12.7181 4.00761 12.3101 4.02153 11.0302 4.08393ZM11.1703 25.7773C10.0003 25.7264 9.36503 25.532 8.94167 25.3693C8.38102 25.1533 7.98166 24.8921 7.55974 24.4743C7.13781 24.0564 6.87861 23.6556 6.65973 23.0962C6.49532 22.6728 6.29732 22.0383 6.2426 20.8683C6.18308 19.6037 6.1706 19.224 6.16364 16.0202C6.15668 12.8164 6.16892 12.4372 6.22436 11.1722C6.27428 10.0031 6.46988 9.3671 6.63237 8.94398C6.84837 8.38261 7.10853 7.98397 7.52734 7.56228C7.94614 7.1406 8.34574 6.88091 8.90567 6.66203C9.32855 6.49691 9.96312 6.30059 11.1327 6.24491C12.3982 6.18491 12.7774 6.17291 15.9807 6.16595C19.184 6.15899 19.5642 6.17099 20.8302 6.22667C21.9992 6.27755 22.6355 6.47123 23.0581 6.63467C23.619 6.85067 24.0181 7.11012 24.4398 7.52964C24.8615 7.94917 25.1214 8.34733 25.3403 8.90846C25.5057 9.33014 25.702 9.96447 25.7572 11.1347C25.8174 12.4003 25.8311 12.7797 25.8369 15.9828C25.8426 19.1858 25.8314 19.5662 25.7759 20.8308C25.7248 22.0008 25.5309 22.6364 25.3679 23.0602C25.1519 23.6206 24.8915 24.0202 24.4725 24.4417C24.0534 24.8631 23.6543 25.1228 23.0941 25.3417C22.6717 25.5065 22.0364 25.7033 20.8679 25.759C19.6023 25.8185 19.2231 25.831 16.0186 25.838C12.8141 25.8449 12.4361 25.832 11.1706 25.7773M20.9531 9.58646C20.9535 9.87129 21.0385 10.1496 21.1971 10.3861C21.3558 10.6227 21.581 10.8069 21.8443 10.9154C22.1077 11.024 22.3973 11.052 22.6765 10.9959C22.9558 10.9398 23.2122 10.8022 23.4132 10.6004C23.6142 10.3987 23.7509 10.1418 23.806 9.86234C23.861 9.58288 23.8319 9.29338 23.7224 9.03044C23.6129 8.7675 23.4279 8.54295 23.1908 8.38517C22.9536 8.22739 22.675 8.14348 22.3902 8.14405C22.0084 8.14481 21.6425 8.29719 21.373 8.56768C21.1035 8.83818 20.9524 9.20463 20.9531 9.58646ZM9.83856 16.012C9.84528 19.4153 12.6091 22.1679 16.0117 22.1614C19.4142 22.1549 22.1687 19.3913 22.1622 15.988C22.1557 12.5848 19.3911 9.8315 15.9881 9.83822C12.5851 9.84494 9.83208 12.6093 9.83856 16.012ZM12 16.0077C11.9985 15.2166 12.2315 14.4427 12.6698 13.7841C13.108 13.1254 13.7317 12.6114 14.462 12.3072C15.1924 12.003 15.9965 11.9222 16.7727 12.075C17.549 12.2278 18.2625 12.6074 18.823 13.1657C19.3836 13.724 19.766 14.436 19.9218 15.2117C20.0777 15.9873 20.0001 16.7917 19.6988 17.5233C19.3975 18.2548 18.886 18.8805 18.2291 19.3214C17.5721 19.7622 16.7992 19.9984 16.0081 19.9999C15.4827 20.001 14.9623 19.8986 14.4766 19.6986C13.9909 19.4986 13.5493 19.2048 13.1771 18.8341C12.8049 18.4633 12.5094 18.0229 12.3074 17.538C12.1054 17.053 12.001 16.533 12 16.0077Z" fill="#868E96"/>
</svg>
