<svg width="27" height="28" viewBox="0 0 27 28" fill="none" xmlns="http://www.w3.org/2000/svg">
<g clip-path="url(#clip0_662_172)">
<path d="M13.2682 0.971924C6.06075 0.971924 0.21788 6.8148 0.21788 14.0222C0.21788 20.1423 4.43155 25.2778 10.1157 26.6883V18.0104H7.42477V14.0222H10.1157V12.3037C10.1157 7.86195 12.126 5.80314 16.4869 5.80314C17.3137 5.80314 18.7404 5.96548 19.324 6.12731V9.74223C19.016 9.70987 18.481 9.69369 17.8164 9.69369C15.6767 9.69369 14.8499 10.5044 14.8499 12.6117V14.0222H19.1126L18.3802 18.0104H14.8499V26.977C21.3118 26.1966 26.319 20.6946 26.319 14.0222C26.3184 6.8148 20.4756 0.971924 13.2682 0.971924Z" fill="black"/>
</g>
<defs>
<clipPath id="clip0_662_172">
<rect width="26.1006" height="26.1006" fill="white" transform="translate(0.21788 0.971924)"/>
</clipPath>
</defs>
</svg>
