<svg width="27" height="27" viewBox="0 0 27 27" fill="none" xmlns="http://www.w3.org/2000/svg">
<g clip-path="url(#clip0_662_166)">
<path d="M26.0585 8.70144C26.0585 8.70144 25.8036 6.90193 25.0185 6.11178C24.0245 5.07183 22.9132 5.06674 22.4034 5.00556C18.7534 4.74048 13.2733 4.74048 13.2733 4.74048H13.2631C13.2631 4.74048 7.78299 4.74048 4.13299 5.00556C3.62322 5.06674 2.51191 5.07183 1.51784 6.11178C0.732785 6.90193 0.482995 8.70144 0.482995 8.70144C0.482995 8.70144 0.217911 10.817 0.217911 12.9275V14.9054C0.217911 17.0159 0.477897 19.1315 0.477897 19.1315C0.477897 19.1315 0.732785 20.931 1.51274 21.7211C2.50681 22.7611 3.81184 22.7254 4.39298 22.8375C6.48307 23.0364 13.2682 23.0975 13.2682 23.0975C13.2682 23.0975 18.7534 23.0873 22.4034 22.8274C22.9132 22.7662 24.0245 22.7611 25.0185 21.7211C25.8036 20.931 26.0585 19.1315 26.0585 19.1315C26.0585 19.1315 26.3185 17.021 26.3185 14.9054V12.9275C26.3185 10.817 26.0585 8.70144 26.0585 8.70144ZM10.5715 17.3065V9.97079L17.6217 13.6514L10.5715 17.3065Z" fill="black"/>
</g>
<defs>
<clipPath id="clip0_662_166">
<rect width="26.1006" height="26.1006" fill="white" transform="translate(0.217911 0.871338)"/>
</clipPath>
</defs>
</svg>
