<svg width="27" height="28" viewBox="0 0 27 28" fill="none" xmlns="http://www.w3.org/2000/svg">
<g clip-path="url(#clip0_662_170)">
<path d="M19.1832 0.971924H14.7844V18.7505C14.7844 20.8689 13.0927 22.6089 10.9873 22.6089C8.88194 22.6089 7.19014 20.8689 7.19014 18.7505C7.19014 16.6701 8.84435 14.9678 10.8745 14.8922V10.4287C6.40063 10.5043 2.79144 14.1735 2.79144 18.7505C2.79144 23.3655 6.47582 27.0725 11.0249 27.0725C15.5739 27.0725 19.2583 23.3276 19.2583 18.7505V9.63426C20.9125 10.8448 22.9427 11.5635 25.0857 11.6013V7.13771C21.7773 7.02423 19.1832 4.30069 19.1832 0.971924Z" fill="black"/>
</g>
<defs>
<clipPath id="clip0_662_170">
<rect width="26.1006" height="26.1006" fill="white" transform="translate(0.616394 0.971924)"/>
</clipPath>
</defs>
</svg>
