<svg width="40" height="40" viewBox="0 0 40 40" fill="none" xmlns="http://www.w3.org/2000/svg">
<g clip-path="url(#clip0_819_2577)">
<path d="M40 16.6667C39.9981 15.3734 39.62 14.1086 38.9118 13.0264C38.2037 11.9442 37.196 11.0913 36.0117 10.5717C36.1317 10.2217 36.2633 9.87007 36.3667 9.52173C36.6949 8.42212 36.7595 7.26067 36.5554 6.13141C36.3513 5.00216 35.8841 3.93685 35.1917 3.02173C34.4953 2.08026 33.5869 1.31608 32.5402 0.791106C31.4934 0.266132 30.3377 -0.0048671 29.1667 6.61654e-05H10.8333C9.66231 -0.0048671 8.5066 0.266132 7.45984 0.791106C6.41308 1.31608 5.50471 2.08026 4.80833 3.02173C4.11709 3.93744 3.65125 5.0031 3.44856 6.13237C3.24587 7.26165 3.31202 8.42279 3.64167 9.52173C3.745 9.87007 3.87667 10.2217 3.99667 10.5717C2.81076 11.0901 1.80137 11.9424 1.09167 13.0247C0.381968 14.107 0.00265018 15.3725 0 16.6667C0 21.9167 3.965 28.0001 15 28.3051V32.5001C15.0329 32.8365 14.9908 33.1761 14.8768 33.4943C14.7628 33.8126 14.5796 34.1016 14.3406 34.3407C14.1016 34.5797 13.8125 34.7628 13.4943 34.8768C13.176 34.9909 12.8365 35.0329 12.5 35.0001H10.8333C10.1703 35.0001 9.53441 35.2635 9.06557 35.7323C8.59672 36.2011 8.33333 36.837 8.33333 37.5001C8.33333 38.1631 8.59672 38.799 9.06557 39.2678C9.53441 39.7367 10.1703 40.0001 10.8333 40.0001H29.1667C29.8297 40.0001 30.4656 39.7367 30.9344 39.2678C31.4033 38.799 31.6667 38.1631 31.6667 37.5001C31.6667 36.837 31.4033 36.2011 30.9344 35.7323C30.4656 35.2635 29.8297 35.0001 29.1667 35.0001H27.53C27.1915 35.0362 26.8492 34.9966 26.5279 34.8841C26.2066 34.7717 25.9143 34.5893 25.6722 34.35C25.43 34.1107 25.2441 33.8206 25.1279 33.5007C25.0116 33.1807 24.9679 32.839 25 32.5001V28.3051C36.035 28.0001 40 21.9167 40 16.6667ZM35 16.6667C35 19.3117 33.0767 22.1001 27.9767 23.0184C30.4166 20.7541 32.4564 18.0939 34.01 15.1501C34.3037 15.2805 34.5534 15.4931 34.729 15.7622C34.9046 16.0313 34.9988 16.3454 35 16.6667ZM8.81333 6.01507C9.04663 5.6991 9.3511 5.44254 9.70205 5.2662C10.053 5.08985 10.4406 4.99868 10.8333 5.00007H29.1667C29.5594 4.99868 29.947 5.08985 30.2979 5.2662C30.6489 5.44254 30.9534 5.6991 31.1867 6.01507C31.4115 6.30788 31.5636 6.64986 31.6305 7.0129C31.6974 7.37593 31.6773 7.74967 31.5717 8.1034C30.2193 12.4993 27.725 16.4578 24.3433 19.5751C23.0005 20.5778 21.9091 21.879 21.1554 23.3758C20.4016 24.8726 20.0061 26.5242 20 28.2001V28.2001C19.9937 26.5237 19.598 24.8718 18.8443 23.3745C18.0906 21.8771 16.9994 20.5754 15.6567 19.5717C12.2744 16.4556 9.78005 12.4975 8.42833 8.10173C8.32301 7.74825 8.30299 7.37483 8.36992 7.0121C8.43684 6.64938 8.5888 6.30769 8.81333 6.01507V6.01507ZM5 16.6667C5.00125 16.3454 5.09536 16.0313 5.271 15.7622C5.44665 15.4931 5.69634 15.2805 5.99 15.1501C7.54377 18.0943 9.5842 20.7545 12.025 23.0184C6.92333 22.1017 5 19.3117 5 16.6667Z" fill="#8A84E2"/>
</g>
<defs>
<clipPath id="clip0_819_2577">
<rect width="40" height="40" fill="white"/>
</clipPath>
</defs>
</svg>
