<svg width="69" height="68" viewBox="0 0 69 68" fill="none" xmlns="http://www.w3.org/2000/svg">
<g clip-path="url(#clip0_739_188)">
<path d="M20.6419 0.367129C17.0679 0.535755 14.6271 1.10613 12.4935 1.94456C10.2852 2.80516 8.4135 3.96001 6.55122 5.82901C4.68894 7.698 3.54215 9.57103 2.68759 11.7827C1.86059 13.9211 1.30029 16.3638 1.14241 19.9399C0.984535 23.516 0.9496 24.6654 0.967068 33.7874C0.984535 42.9093 1.02484 44.0527 1.19817 47.6362C1.36881 51.2096 1.93717 53.6497 2.7756 55.784C3.63755 57.9923 4.79106 59.8633 6.66073 61.7263C8.5304 63.5892 10.4021 64.7333 12.6191 65.5892C14.7555 66.4149 17.1989 66.9779 20.7743 67.1344C24.3497 67.2909 25.5005 67.3272 34.6198 67.3097C43.7391 67.2923 44.8872 67.252 48.47 67.082C52.0528 66.912 54.4801 66.3396 56.6151 65.5052C58.8234 64.6413 60.6957 63.4898 62.5574 61.6194C64.419 59.7491 65.5651 57.8747 66.419 55.6618C67.2466 53.5254 67.809 51.082 67.9641 47.5093C68.1207 43.9238 68.1576 42.779 68.1402 33.6584C68.1227 24.5378 68.0817 23.3944 67.9117 19.8122C67.7418 16.2301 67.1727 13.7974 66.335 11.6617C65.4717 9.45346 64.3195 7.58379 62.4505 5.7195C60.5815 3.85521 58.7058 2.70976 56.4935 1.85789C54.3558 1.03088 51.9137 0.46723 48.3383 0.312712C44.7629 0.158193 43.6121 0.118556 34.4895 0.136023C25.3668 0.153491 24.2247 0.192456 20.6419 0.367129ZM21.0343 61.0914C17.7592 60.949 15.9809 60.4048 14.7958 59.9493C13.2264 59.3447 12.1085 58.6137 10.9274 57.4441C9.74639 56.2745 9.02082 55.1525 8.40813 53.5865C7.94793 52.4014 7.39368 50.6251 7.24051 47.35C7.0739 43.8102 7.03896 42.7474 7.01948 33.7793C7 24.8112 7.03426 23.7497 7.18945 20.2086C7.32919 16.9362 7.87672 15.1559 8.33154 13.9714C8.93618 12.4001 9.66443 11.2842 10.8367 10.1038C12.0091 8.9234 13.1276 8.19649 14.695 7.58379C15.8787 7.12158 17.655 6.57204 20.9288 6.41618C24.4713 6.24822 25.5328 6.21463 34.4995 6.19515C43.4663 6.17566 44.5304 6.20926 48.0743 6.36512C51.3467 6.50754 53.1277 7.0497 54.3108 7.50721C55.8808 8.11184 56.9981 8.83808 58.1784 10.0124C59.3588 11.1868 60.0864 12.3013 60.6991 13.872C61.162 15.0524 61.7115 16.828 61.866 20.1038C62.0347 23.6463 62.073 24.7084 62.0891 33.6745C62.1052 42.6406 62.0736 43.7054 61.9184 47.2452C61.7754 50.5203 61.2325 52.2993 60.7764 53.4857C60.1717 55.0544 59.4428 56.173 58.2698 57.3527C57.0968 58.5324 55.9796 59.2593 54.4116 59.872C53.2292 60.3336 51.4509 60.8845 48.1798 61.0403C44.6373 61.2069 43.5758 61.2419 34.6057 61.2614C25.6356 61.2808 24.5774 61.2446 21.035 61.0914M48.4183 15.7699C48.4196 16.5672 48.6573 17.3462 49.1014 18.0083C49.5455 18.6705 50.176 19.1861 50.9131 19.4899C51.6503 19.7938 52.4609 19.8722 53.2426 19.7152C54.0243 19.5583 54.7419 19.173 55.3047 18.6082C55.8674 18.0434 56.25 17.3244 56.4041 16.5421C56.5582 15.7599 56.4768 14.9495 56.1703 14.2135C55.8638 13.4775 55.3458 12.8489 54.6821 12.4072C54.0183 11.9656 53.2384 11.7307 52.4411 11.7323C51.3723 11.7344 50.3481 12.161 49.5937 12.9181C48.8393 13.6753 48.4165 14.7011 48.4183 15.7699ZM17.3064 33.7565C17.3252 43.2828 25.0618 50.9879 34.5862 50.9698C44.1106 50.9516 51.821 43.2157 51.8029 33.6893C51.7847 24.1629 44.0461 16.4558 34.5204 16.4746C24.9946 16.4934 17.2882 24.2314 17.3064 33.7565ZM23.3568 33.7444C23.3524 31.5298 24.0048 29.3636 25.2315 27.5198C26.4582 25.676 28.2041 24.2374 30.2485 23.3859C32.2928 22.5343 34.5438 22.3081 36.7166 22.7359C38.8895 23.1636 40.8868 24.2261 42.4558 25.789C44.0249 27.3518 45.0953 29.3448 45.5316 31.516C45.968 33.6872 45.7507 35.939 44.9073 37.9867C44.0638 40.0344 42.6321 41.786 40.7932 43.02C38.9543 44.254 36.7907 44.915 34.5761 44.9194C33.1056 44.9225 31.6489 44.6359 30.2892 44.0759C28.9295 43.516 27.6935 42.6936 26.6516 41.6559C25.6098 40.6182 24.7825 39.3854 24.2172 38.0279C23.6519 36.6704 23.3595 35.2149 23.3568 33.7444Z" fill="black"/>
</g>
<defs>
<clipPath id="clip0_739_188">
<rect width="67.1818" height="67.1818" fill="white" transform="translate(0.958984 0.131592)"/>
</clipPath>
</defs>
</svg>
