<svg width="60" height="60" viewBox="0 0 60 60" fill="none" xmlns="http://www.w3.org/2000/svg">
<path d="M37.3475 28.17L42.6525 33.4725L33.6875 42.4375C32.875 43.2501 31.9103 43.8947 30.8487 44.3345C29.787 44.7743 28.6491 45.0006 27.5 45.0006C26.3509 45.0006 25.213 44.7743 24.1513 44.3345C23.0897 43.8947 22.125 43.2501 21.3125 42.4375L17.3475 38.475L22.6525 33.17L26.615 37.1325C26.8494 37.3668 27.1673 37.4985 27.4988 37.4985C27.8302 37.4985 28.1481 37.3668 28.3825 37.1325L37.3475 28.17ZM55 14.6975V60H5V7.5C5 5.51088 5.79018 3.60322 7.1967 2.1967C8.60322 0.790176 10.5109 0 12.5 0L40.3025 0L55 14.6975ZM47.5 52.5V20H35V7.5H12.5V52.5H47.5Z" fill="#8A84E2"/>
</svg>
