<svg width="79" height="81" viewBox="0 0 79 81" fill="none" xmlns="http://www.w3.org/2000/svg">
<g filter="url(#filter0_d_702_2269)">
<rect x="1.19006" y="0.405029" width="76.5" height="76.5" rx="25.5" fill="#FF0000"/>
<g clip-path="url(#clip0_702_2269)" filter="url(#filter1_i_702_2269)">
<path d="M49.0026 30.6856C49.0026 31.0009 48.9091 31.309 48.734 31.5711C48.5588 31.8332 48.3099 32.0375 48.0187 32.1581C47.7275 32.2787 47.407 32.3103 47.0979 32.2488C46.7887 32.1873 46.5048 32.0355 46.2819 31.8126C46.059 31.5897 45.9072 31.3057 45.8457 30.9966C45.7842 30.6874 45.8158 30.367 45.9364 30.0757C46.057 29.7845 46.2613 29.5356 46.5234 29.3605C46.7855 29.1854 47.0936 29.0919 47.4088 29.0919C47.8315 29.0919 48.2369 29.2598 48.5358 29.5587C48.8347 29.8576 49.0026 30.263 49.0026 30.6856ZM42.6276 33.8731C42.3123 33.8731 42.0042 33.9666 41.7421 34.1417C41.48 34.3169 41.2758 34.5658 41.1551 34.857C41.0345 35.1482 41.0029 35.4687 41.0644 35.7778C41.1259 36.087 41.2777 36.371 41.5006 36.5939C41.7235 36.8167 42.0075 36.9685 42.3166 37.03C42.6258 37.0915 42.9462 37.06 43.2375 36.9393C43.5287 36.8187 43.7776 36.6144 43.9527 36.3523C44.1278 36.0903 44.2213 35.7821 44.2213 35.4669C44.2213 35.0442 44.0534 34.6388 43.7545 34.3399C43.4556 34.0411 43.0503 33.8731 42.6276 33.8731ZM37.8463 38.6544C37.5311 38.6544 37.223 38.7479 36.9609 38.923C36.6988 39.0981 36.4945 39.347 36.3739 39.6382C36.2533 39.9295 36.2217 40.2499 36.2832 40.5591C36.3447 40.8682 36.4965 41.1522 36.7194 41.3751C36.9423 41.598 37.2262 41.7498 37.5354 41.8113C37.8445 41.8728 38.165 41.8412 38.4562 41.7206C38.7474 41.6 38.9963 41.3957 39.1715 41.1336C39.3466 40.8715 39.4401 40.5634 39.4401 40.2481C39.4401 39.8255 39.2722 39.4201 38.9733 39.1212C38.6744 38.8223 38.269 38.6544 37.8463 38.6544ZM58.3515 24.2437L58.232 24.58C55.8382 31.2227 53.5416 37.5388 49.0026 43.1488V43.4356C48.9998 45.8768 48.4881 48.2906 47.5002 50.5229C46.5123 52.7552 45.0699 54.7571 43.2651 56.4008C42.3096 57.2823 41.0588 57.7741 39.7588 57.7794C38.4058 57.7752 37.1096 57.2352 36.1538 56.2776C35.198 55.32 34.6605 54.0228 34.6588 52.6698V50.8354C33.4828 50.4562 32.4123 49.806 31.5335 48.9373L31.4713 48.8767L27.8168 52.5312C27.5163 52.8215 27.1137 52.9821 26.6958 52.9785C26.2779 52.9749 25.8782 52.8073 25.5827 52.5118C25.2872 52.2163 25.1196 51.8165 25.116 51.3987C25.1123 50.9808 25.273 50.5782 25.5633 50.2776L29.2178 46.6231L29.1556 46.5626C28.2863 45.6828 27.6347 44.612 27.2527 43.4356H25.6748C24.254 43.4344 22.8917 42.8695 21.8869 41.865C20.882 40.8604 20.3168 39.4983 20.3151 38.0775C20.3179 36.6898 20.853 35.3561 21.81 34.3513C23.4763 32.64 25.4769 31.29 27.6874 30.3851C29.8978 29.4803 32.2709 29.0401 34.6588 29.0919H34.9457C40.5557 24.5545 46.8669 22.2579 53.5065 19.8657L53.8507 19.743C54.479 19.512 55.1602 19.4657 55.814 19.6095C56.4677 19.7533 57.0666 20.0813 57.5399 20.5546C58.0132 21.0279 58.3411 21.6268 58.485 22.2805C58.6288 22.9342 58.5825 23.6155 58.3515 24.2437ZM25.6748 40.2481H26.8494C26.9692 38.8439 27.4592 37.4966 28.2695 36.3435C29.1589 35.0638 30.1215 33.8367 31.1526 32.6683C28.4791 33.2216 26.035 34.5693 24.1401 36.5347C23.7369 36.9478 23.5086 37.5003 23.5026 38.0775C23.5034 38.6532 23.7326 39.2051 24.1398 39.612C24.5471 40.0189 25.0991 40.2477 25.6748 40.2481ZM45.3369 47.0248C44.1938 48.0255 42.9955 48.9614 41.7478 49.8282C40.5938 50.6306 39.2474 51.1124 37.8463 51.2243V52.6698C37.8472 53.1796 38.0501 53.6683 38.4108 54.0286C38.7714 54.3889 39.2602 54.5915 39.77 54.5919C40.2753 54.5844 40.7597 54.3883 41.1278 54.0421C43.1825 52.1613 44.645 49.7229 45.3369 47.0248ZM55.2772 22.8173C55.2347 22.7701 55.1785 22.7373 55.1165 22.7236C55.0545 22.7099 54.9897 22.7159 54.9313 22.7408L54.5887 22.8651C46.8685 25.6462 40.2019 28.0496 34.4612 33.7887C33.1443 35.1467 31.9457 36.6145 30.8784 38.1763C30.2292 39.0977 29.9265 40.2189 30.0236 41.3419C30.1207 42.4649 30.6114 43.5175 31.4092 44.3138L33.787 46.6885C34.583 47.4857 35.6348 47.9762 36.7571 48.0736C37.8794 48.1709 39 47.8689 39.9214 47.2208C41.4823 46.1537 42.9491 44.9551 44.3058 43.6381C50.0433 37.9006 52.4498 31.2275 55.2325 23.5042L55.3537 23.1679C55.3795 23.1089 55.3859 23.0432 55.3722 22.9802C55.3585 22.9173 55.3252 22.8602 55.2772 22.8173Z" fill="white"/>
</g>
</g>
<defs>
<filter id="filter0_d_702_2269" x="0.170063" y="0.405029" width="78.54" height="80.07" filterUnits="userSpaceOnUse" color-interpolation-filters="sRGB">
<feFlood flood-opacity="0" result="BackgroundImageFix"/>
<feColorMatrix in="SourceAlpha" type="matrix" values="0 0 0 0 0 0 0 0 0 0 0 0 0 0 0 0 0 0 127 0" result="hardAlpha"/>
<feOffset dy="2.55"/>
<feGaussianBlur stdDeviation="0.51"/>
<feComposite in2="hardAlpha" operator="out"/>
<feColorMatrix type="matrix" values="0 0 0 0 0 0 0 0 0 0 0 0 0 0 0 0 0 0 0.25 0"/>
<feBlend mode="normal" in2="BackgroundImageFix" result="effect1_dropShadow_702_2269"/>
<feBlend mode="normal" in="SourceGraphic" in2="effect1_dropShadow_702_2269" result="shape"/>
</filter>
<filter id="filter1_i_702_2269" x="20.3151" y="19.53" width="38.7651" height="38.7651" filterUnits="userSpaceOnUse" color-interpolation-filters="sRGB">
<feFlood flood-opacity="0" result="BackgroundImageFix"/>
<feBlend mode="normal" in="SourceGraphic" in2="BackgroundImageFix" result="shape"/>
<feColorMatrix in="SourceAlpha" type="matrix" values="0 0 0 0 0 0 0 0 0 0 0 0 0 0 0 0 0 0 127 0" result="hardAlpha"/>
<feOffset dx="0.8466" dy="0.5916"/>
<feGaussianBlur stdDeviation="0.25755"/>
<feComposite in2="hardAlpha" operator="arithmetic" k2="-1" k3="1"/>
<feColorMatrix type="matrix" values="0 0 0 0 0 0 0 0 0 0 0 0 0 0 0 0 0 0 0.25 0"/>
<feBlend mode="normal" in2="shape" result="effect1_innerShadow_702_2269"/>
</filter>
<clipPath id="clip0_702_2269">
<rect width="38.25" height="38.25" fill="white" transform="translate(20.3151 19.53)"/>
</clipPath>
</defs>
</svg>
