<svg width="27" height="28" viewBox="0 0 27 28" fill="none" xmlns="http://www.w3.org/2000/svg">
<g clip-path="url(#clip0_662_168)">
<path d="M19.2555 13.069C19.1431 13.0151 19.0289 12.9633 18.9132 12.9136C18.7117 9.20151 16.6834 7.07633 13.2775 7.05458C13.2621 7.05448 13.2467 7.05448 13.2313 7.05448C11.1942 7.05448 9.49988 7.92404 8.45707 9.50636L10.3302 10.7913C11.1092 9.60935 12.3318 9.35738 13.2322 9.35738C13.2426 9.35738 13.253 9.35738 13.2633 9.35748C14.3848 9.36463 15.231 9.69068 15.7787 10.3265C16.1773 10.7894 16.4438 11.4291 16.5758 12.2365C15.5816 12.0675 14.5063 12.0155 13.3568 12.0814C10.1186 12.2679 8.03689 14.1565 8.17671 16.7807C8.24766 18.1118 8.9108 19.257 10.0439 20.0051C11.0019 20.6375 12.2358 20.9467 13.5182 20.8767C15.2117 20.7839 16.5402 20.1378 17.4671 18.9563C18.171 18.0591 18.6162 16.8964 18.8127 15.4314C19.6198 15.9184 20.218 16.5594 20.5483 17.3299C21.11 18.6397 21.1428 20.792 19.3865 22.5468C17.8478 24.084 15.9982 24.749 13.203 24.7695C10.1022 24.7465 7.75722 23.7521 6.23256 21.8139C4.80483 19.999 4.06697 17.3775 4.03944 14.0222C4.06697 10.6669 4.80483 8.04539 6.23256 6.23047C7.75722 4.29226 10.1022 3.29786 13.2029 3.27482C16.3261 3.29804 18.712 4.29722 20.295 6.24478C21.0713 7.19984 21.6565 8.4009 22.0423 9.8013L24.2373 9.21565C23.7697 7.49193 23.0338 6.00657 22.0325 4.77472C20.003 2.27786 17.0349 0.998452 13.2106 0.971924H13.1953C9.37869 0.99836 6.44381 2.28263 4.47216 4.78904C2.71765 7.01942 1.81263 10.1228 1.78222 14.013L1.78213 14.0222L1.78222 14.0314C1.81263 17.9215 2.71765 21.025 4.47216 23.2554C6.44381 25.7617 9.37869 27.0461 13.1953 27.0725H13.2106C16.6037 27.049 18.9954 26.1606 20.9658 24.192C23.5436 21.6167 23.466 18.3885 22.6164 16.4067C22.0068 14.9856 20.8446 13.8314 19.2555 13.069ZM13.3969 18.5772C11.9777 18.6571 10.5033 18.0201 10.4306 16.6556C10.3767 15.644 11.1506 14.5151 13.484 14.3807C13.7513 14.3652 14.0135 14.3577 14.2711 14.3577C15.1187 14.3577 15.9116 14.44 16.6325 14.5976C16.3636 17.9556 14.7865 18.5009 13.3969 18.5772Z" fill="black"/>
</g>
<defs>
<clipPath id="clip0_662_168">
<rect width="26.1006" height="26.1006" fill="white" transform="translate(0.0149002 0.971924)"/>
</clipPath>
</defs>
</svg>
