<svg width="27" height="27" viewBox="0 0 27 27" fill="none" xmlns="http://www.w3.org/2000/svg">
<g clip-path="url(#clip0_662_162)">
<path d="M13.6667 3.22141C17.1536 3.22141 17.5665 3.2367 18.9378 3.29787C20.2122 3.35395 20.9004 3.56806 21.3592 3.74648C21.9659 3.98098 22.4043 4.26645 22.858 4.72015C23.3168 5.17895 23.5972 5.61226 23.8316 6.21889C24.0101 6.67769 24.2242 7.37099 24.2803 8.64033C24.3414 10.0167 24.3567 10.4296 24.3567 13.9114C24.3567 17.3983 24.3414 17.8112 24.2803 19.1825C24.2242 20.457 24.0101 21.1452 23.8316 21.604C23.5972 22.2106 23.3117 22.649 22.858 23.1027C22.3992 23.5615 21.9659 23.8419 21.3592 24.0764C20.9004 24.2548 20.2071 24.4689 18.9378 24.525C17.5614 24.5861 17.1485 24.6014 13.6667 24.6014C10.1798 24.6014 9.76691 24.5861 8.39562 24.525C7.12117 24.4689 6.43298 24.2548 5.97418 24.0764C5.36754 23.8419 4.92913 23.5564 4.47543 23.1027C4.01663 22.6439 3.73626 22.2106 3.50176 21.604C3.32334 21.1452 3.10923 20.4519 3.05316 19.1825C2.99198 17.8061 2.97669 17.3932 2.97669 13.9114C2.97669 10.4246 2.99198 10.0116 3.05316 8.64033C3.10923 7.36589 3.32334 6.67769 3.50176 6.21889C3.73626 5.61226 4.02173 5.17385 4.47543 4.72015C4.93423 4.26135 5.36754 3.98098 5.97418 3.74648C6.43298 3.56806 7.12627 3.35395 8.39562 3.29787C9.76691 3.2367 10.1798 3.22141 13.6667 3.22141ZM13.6667 0.871338C10.1238 0.871338 9.68025 0.886631 8.28856 0.947804C6.90197 1.00898 5.94869 1.23328 5.12285 1.55444C4.26133 1.89089 3.53235 2.3344 2.80846 3.06338C2.07948 3.78726 1.63598 4.51624 1.29953 5.37267C0.978366 6.2036 0.754064 7.15178 0.692891 8.53838C0.631718 9.93516 0.616425 10.3787 0.616425 13.9216C0.616425 17.4646 0.631718 17.9081 0.692891 19.2998C0.754064 20.6864 0.978366 21.6396 1.29953 22.4655C1.63598 23.327 2.07948 24.056 2.80846 24.7799C3.53235 25.5037 4.26133 25.9523 5.11775 26.2837C5.94869 26.6049 6.89687 26.8292 8.28346 26.8903C9.67515 26.9515 10.1187 26.9668 13.6616 26.9668C17.2046 26.9668 17.6481 26.9515 19.0398 26.8903C20.4263 26.8292 21.3796 26.6049 22.2055 26.2837C23.0619 25.9523 23.7909 25.5037 24.5147 24.7799C25.2386 24.056 25.6872 23.327 26.0186 22.4706C26.3398 21.6396 26.5641 20.6915 26.6252 19.3049C26.6864 17.9132 26.7017 17.4697 26.7017 13.9267C26.7017 10.3838 26.6864 9.94026 26.6252 8.54857C26.5641 7.16198 26.3398 6.2087 26.0186 5.38286C25.6974 4.51624 25.2539 3.78726 24.5249 3.06338C23.8011 2.33949 23.0721 1.89089 22.2157 1.55954C21.3847 1.23838 20.4365 1.01408 19.0499 0.952902C17.6532 0.886631 17.2097 0.871338 13.6667 0.871338Z" fill="black"/>
<path d="M13.6667 7.21802C9.96573 7.21802 6.96314 10.2206 6.96314 13.9216C6.96314 17.6226 9.96573 20.6251 13.6667 20.6251C17.3677 20.6251 20.3703 17.6226 20.3703 13.9216C20.3703 10.2206 17.3677 7.21802 13.6667 7.21802ZM13.6667 18.27C11.2657 18.27 9.31831 16.3226 9.31831 13.9216C9.31831 11.5205 11.2657 9.57319 13.6667 9.57319C16.0678 9.57319 18.0151 11.5205 18.0151 13.9216C18.0151 16.3226 16.0678 18.27 13.6667 18.27Z" fill="black"/>
<path d="M22.2004 6.95296C22.2004 7.81958 21.4969 8.51797 20.6353 8.51797C19.7687 8.51797 19.0703 7.81448 19.0703 6.95296C19.0703 6.08633 19.7738 5.38794 20.6353 5.38794C21.4969 5.38794 22.2004 6.09143 22.2004 6.95296Z" fill="black"/>
</g>
<defs>
<clipPath id="clip0_662_162">
<rect width="26.1006" height="26.1006" fill="white" transform="translate(0.616425 0.871338)"/>
</clipPath>
</defs>
</svg>
