<svg width="46" height="46" viewBox="0 0 46 46" fill="none" xmlns="http://www.w3.org/2000/svg">
<g clip-path="url(#clip0_851_6341)">
<path d="M45.5 29.5625C45.4989 28.1761 45.1561 26.8113 44.5021 25.5889C43.848 24.3664 42.9028 23.324 41.75 22.5538V7.0625C41.75 5.32202 41.0586 3.65282 39.8279 2.42211C38.5972 1.1914 36.928 0.5 35.1875 0.5H10.8125C9.07202 0.5 7.40282 1.1914 6.17211 2.42211C4.9414 3.65282 4.25 5.32202 4.25 7.0625V41.75H26.75V36.125H9.875V7.0625C9.875 6.81386 9.97377 6.5754 10.1496 6.39959C10.3254 6.22377 10.5639 6.125 10.8125 6.125H35.1875C35.4361 6.125 35.6746 6.22377 35.8504 6.39959C36.0262 6.5754 36.125 6.81386 36.125 7.0625V21.2206C34.4078 21.4058 32.7894 22.1157 31.4902 23.2537C30.1909 24.3917 29.2739 25.9024 28.864 27.5802C28.4542 29.258 28.5713 31.0214 29.1996 32.6302C29.8278 34.239 30.9366 35.6152 32.375 36.5713V45.5L37.0625 40.8125L41.75 45.5V36.5713C42.9028 35.801 43.848 34.7586 44.5021 33.5361C45.1561 32.3137 45.4989 30.9489 45.5 29.5625V29.5625ZM37.0625 26.75C37.6188 26.75 38.1625 26.9149 38.625 27.224C39.0876 27.533 39.448 27.9723 39.6609 28.4862C39.8738 29.0001 39.9295 29.5656 39.821 30.1112C39.7124 30.6568 39.4446 31.1579 39.0512 31.5512C38.6579 31.9446 38.1568 32.2124 37.6112 32.321C37.0656 32.4295 36.5001 32.3738 35.9862 32.1609C35.4723 31.948 35.033 31.5876 34.724 31.125C34.415 30.6625 34.25 30.1188 34.25 29.5625C34.25 28.8166 34.5463 28.1012 35.0738 27.5738C35.6012 27.0463 36.3166 26.75 37.0625 26.75V26.75ZM32.375 15.5H13.625V9.875H32.375V15.5ZM13.625 19.25H24.875V24.875H13.625V19.25Z" fill="#8A84E2"/>
</g>
<defs>
<clipPath id="clip0_851_6341">
<rect width="45" height="45" fill="white" transform="translate(0.5 0.5)"/>
</clipPath>
</defs>
</svg>
