<svg width="63" height="63" viewBox="0 0 63 63" fill="none" xmlns="http://www.w3.org/2000/svg">
<path d="M0.783203 62.4344L5.11263 46.618C2.44106 41.9883 1.03727 36.7401 1.03984 31.3585C1.04754 14.5335 14.739 0.842041 31.5614 0.842041C39.725 0.844607 47.3881 4.02431 53.1521 9.79346C58.9136 15.5626 62.0856 23.2309 62.083 31.3867C62.0753 48.2143 48.3838 61.9057 31.5614 61.9057C26.4544 61.9032 21.4218 60.6226 16.964 58.1897L0.783203 62.4344ZM17.7134 52.6643C22.0146 55.2178 26.1208 56.7474 31.5512 56.7499C45.5326 56.7499 56.9221 45.3708 56.9298 31.3816C56.9349 17.3642 45.5993 6.0004 31.5717 5.99527C17.58 5.99527 6.1982 17.3745 6.19307 31.3611C6.1905 37.0712 7.86376 41.3467 10.6739 45.8199L8.11013 55.1819L17.7134 52.6643ZM46.9364 38.6418C46.7465 38.3236 46.2384 38.1337 45.4736 37.7513C44.7114 37.3689 40.962 35.5237 40.2613 35.2696C39.5633 35.0155 39.0552 34.8872 38.5445 35.652C38.0363 36.4142 36.5735 38.1337 36.1295 38.6418C35.6855 39.1499 35.239 39.2141 34.4768 38.8317C33.7146 38.4493 31.256 37.646 28.3432 35.0463C26.0771 33.0241 24.545 30.527 24.101 29.7622C23.6571 29 24.0549 28.5868 24.4347 28.207C24.7786 27.8657 25.1969 27.3165 25.5793 26.8699C25.9668 26.4285 26.0925 26.1103 26.3492 25.5996C26.6032 25.0915 26.4775 24.6449 26.285 24.2625C26.0925 23.8827 24.5681 20.1282 23.9342 18.6012C23.3132 17.1153 22.6844 17.3154 22.2173 17.2923L20.7545 17.2667C20.2464 17.2667 19.42 17.4566 18.722 18.2214C18.0239 18.9861 16.053 20.8288 16.053 24.5833C16.053 28.3379 18.7861 31.9641 19.166 32.4723C19.5483 32.9804 24.5425 40.6846 32.1927 43.9875C34.0123 44.7728 35.434 45.2424 36.5401 45.594C38.3674 46.174 40.0304 46.0919 41.3443 45.8969C42.8097 45.6787 45.856 44.0517 46.4924 42.2706C47.1289 40.487 47.1289 38.96 46.9364 38.6418Z" fill="#25D366"/>
</svg>
