<svg width="40" height="40" viewBox="0 0 40 40" fill="none" xmlns="http://www.w3.org/2000/svg">
<g clip-path="url(#clip0_819_2579)">
<path d="M36.6668 20V5C36.6668 3.67392 36.14 2.40215 35.2024 1.46447C34.2647 0.526784 32.9929 0 31.6668 0L8.3335 0C7.00741 0 5.73564 0.526784 4.79796 1.46447C3.86028 2.40215 3.3335 3.67392 3.3335 5V20H36.6668Z" fill="#8A84E2"/>
<path d="M0 23.3342V26.6675H18.3333V33.3342H15C13.6739 33.3342 12.4021 33.861 11.4645 34.7986C10.5268 35.7363 10 37.0081 10 38.3342V40.0008H13.3333V38.3342C13.3333 37.8921 13.5089 37.4682 13.8215 37.1557C14.134 36.8431 14.558 36.6675 15 36.6675H25C25.442 36.6675 25.8659 36.8431 26.1785 37.1557C26.4911 37.4682 26.6667 37.8921 26.6667 38.3342V40.0008H30V38.3342C30 37.0081 29.4732 35.7363 28.5355 34.7986C27.5979 33.861 26.3261 33.3342 25 33.3342H21.6667V26.6675H40V23.3342H0Z" fill="#8A84E2"/>
</g>
<defs>
<clipPath id="clip0_819_2579">
<rect width="40" height="40" fill="white"/>
</clipPath>
</defs>
</svg>
