<svg width="54" height="54" viewBox="0 0 54 54" fill="none" xmlns="http://www.w3.org/2000/svg">
<rect width="54" height="54" rx="10" fill="#6D8194"/>
<path d="M24.6535 27.7968C24.5487 27.6923 24.4656 27.5681 24.4089 27.4315C24.3522 27.2948 24.323 27.1483 24.323 27.0003C24.323 26.8523 24.3522 26.7058 24.4089 26.5691C24.4656 26.4324 24.5487 26.3083 24.6535 26.2038L34.972 15.8875C35.6051 15.2547 35.9609 14.3963 35.9611 13.5011C35.9614 12.6059 35.606 11.7473 34.9731 11.1142C34.3403 10.481 33.4818 10.1252 32.5867 10.125C31.6915 10.1248 30.8329 10.4802 30.1997 11.113L19.8813 21.4315C18.407 22.9099 17.5791 24.9125 17.5791 27.0003C17.5791 29.0881 18.407 31.0907 19.8813 32.569L30.1997 42.8875C30.8329 43.5204 31.6915 43.8758 32.5867 43.8756C33.4818 43.8754 34.3403 43.5195 34.9731 42.8864C35.606 42.2533 35.9614 41.3947 35.9611 40.4995C35.9609 39.6043 35.6051 38.7459 34.972 38.113L24.6535 27.7968Z" fill="white"/>
</svg>
