<svg width="68" height="68" viewBox="0 0 68 68" fill="none" xmlns="http://www.w3.org/2000/svg">
<path d="M14.3721 14.3773C14.3721 11.2922 16.8731 8.79114 19.9582 8.79114H33.2254C33.611 8.79114 33.9236 9.10376 33.9236 9.48941V22.7565C33.9236 25.8417 36.4246 28.3427 39.5098 28.3427H52.7769C53.1625 28.3427 53.4752 28.6553 53.4752 29.041V53.4804C53.4752 56.5656 50.9742 59.0666 47.889 59.0666H19.9582C16.8731 59.0666 14.3721 56.5655 14.3721 53.4804V14.3773Z" fill="#BFC8E5"/>
<path d="M36.7166 22.7565V10.4769C36.7166 9.85482 37.4687 9.54327 37.9086 9.98316L52.283 24.3576C52.7229 24.7975 52.4113 25.5496 51.7893 25.5496H39.5096C37.9671 25.5496 36.7166 24.2991 36.7166 22.7565Z" fill="#222222"/>
</svg>
