<svg width="32" height="33" viewBox="0 0 32 33" fill="none" xmlns="http://www.w3.org/2000/svg">
<path d="M29.6378 0.5H2.36222C1.73572 0.5 1.13488 0.748877 0.691879 1.19188C0.248877 1.63488 0 2.23572 0 2.86222V30.1378C0 30.7643 0.248877 31.3651 0.691879 31.8081C1.13488 32.2511 1.73572 32.5 2.36222 32.5H29.6378C30.2643 32.5 30.8651 32.2511 31.3081 31.8081C31.7511 31.3651 32 30.7643 32 30.1378V2.86222C32 2.23572 31.7511 1.63488 31.3081 1.19188C30.8651 0.748877 30.2643 0.5 29.6378 0.5ZM9.53778 27.76H4.72667V12.4778H9.53778V27.76ZM7.12889 10.36C6.58315 10.3569 6.05055 10.1923 5.59831 9.88678C5.14607 9.58131 4.79445 9.14871 4.58784 8.64359C4.38122 8.13846 4.32886 7.58346 4.43738 7.04861C4.54589 6.51376 4.8104 6.02304 5.19754 5.63838C5.58468 5.25372 6.07709 4.99236 6.61262 4.88728C7.14816 4.78221 7.70282 4.83812 8.2066 5.04798C8.71039 5.25784 9.14072 5.61222 9.44329 6.06642C9.74585 6.52061 9.9071 7.05426 9.90667 7.6C9.91182 7.96538 9.84335 8.32805 9.70535 8.66641C9.56735 9.00476 9.36264 9.31187 9.10343 9.56942C8.84421 9.82698 8.5358 10.0297 8.19657 10.1655C7.85733 10.3014 7.49423 10.3675 7.12889 10.36ZM27.2711 27.7733H22.4622V19.4244C22.4622 16.9622 21.4156 16.2022 20.0644 16.2022C18.6378 16.2022 17.2378 17.2778 17.2378 19.4867V27.7733H12.4267V12.4889H17.0533V14.6067H17.1156C17.58 13.6667 19.2067 12.06 21.6889 12.06C24.3733 12.06 27.2733 13.6533 27.2733 18.32L27.2711 27.7733Z" fill="#0A66C2"/>
</svg>
