<svg width="49" height="49" viewBox="0 0 49 49" fill="none" xmlns="http://www.w3.org/2000/svg">
<g clip-path="url(#clip0_838_284)">
<path d="M48.0491 31.2534C48.0479 29.7783 47.6832 28.3261 46.9873 27.0255C46.2914 25.7248 45.2857 24.6156 44.0591 23.7961V7.31334C44.0591 5.46146 43.3234 3.68542 42.014 2.37595C40.7045 1.06647 38.9284 0.330811 37.0766 0.330811H11.1415C9.28958 0.330811 7.51355 1.06647 6.20407 2.37595C4.89459 3.68542 4.15894 5.46146 4.15894 7.31334V44.221H28.099V38.236H10.144V7.31334C10.144 7.04878 10.2491 6.79506 10.4361 6.608C10.6232 6.42093 10.8769 6.31583 11.1415 6.31583H37.0766C37.3411 6.31583 37.5948 6.42093 37.7819 6.608C37.969 6.79506 38.0741 7.04878 38.0741 7.31334V22.3776C36.247 22.5747 34.525 23.33 33.1426 24.5408C31.7602 25.7516 30.7845 27.3591 30.3484 29.1443C29.9123 30.9295 30.0369 32.8057 30.7054 34.5175C31.3738 36.2293 32.5536 37.6935 34.0841 38.7108V48.211L39.0716 43.2235L44.0591 48.211V38.7108C45.2857 37.8912 46.2914 36.7821 46.9873 35.4814C47.6832 34.1807 48.0479 32.7286 48.0491 31.2534V31.2534ZM39.0716 28.2609C39.6634 28.2609 40.242 28.4364 40.7341 28.7652C41.2262 29.0941 41.6098 29.5614 41.8363 30.1082C42.0628 30.6551 42.122 31.2567 42.0066 31.8372C41.8911 32.4177 41.6061 32.9509 41.1876 33.3695C40.7691 33.788 40.2359 34.073 39.6554 34.1884C39.0749 34.3039 38.4732 34.2446 37.9264 34.0181C37.3796 33.7917 36.9122 33.4081 36.5834 32.916C36.2546 32.4239 36.0791 31.8453 36.0791 31.2534C36.0791 30.4598 36.3943 29.6986 36.9555 29.1374C37.5168 28.5762 38.2779 28.2609 39.0716 28.2609V28.2609ZM34.0841 16.2909H14.134V10.3058H34.0841V16.2909ZM14.134 20.2809H26.104V26.2659H14.134V20.2809Z" fill="#8A84E2"/>
</g>
<defs>
<clipPath id="clip0_838_284">
<rect width="47.8802" height="47.8802" fill="white" transform="translate(0.168945 0.330811)"/>
</clipPath>
</defs>
</svg>
