<svg width="68" height="69" viewBox="0 0 68 69" fill="none" xmlns="http://www.w3.org/2000/svg">
<g clip-path="url(#clip0_739_203)">
<path d="M50.35 31.9841C50.0606 31.8454 49.7667 31.7119 49.4689 31.584C48.9502 22.0278 43.7285 16.5568 34.9607 16.5008C34.9209 16.5006 34.8814 16.5006 34.8417 16.5006C29.5974 16.5006 25.2358 18.7391 22.5512 22.8126L27.3733 26.1204C29.3788 23.0777 32.5261 22.429 34.844 22.429C34.8708 22.429 34.8977 22.429 34.9242 22.4293C37.8111 22.4477 39.9896 23.2871 41.3996 24.924C42.4256 26.1157 43.1119 27.7625 43.4517 29.8408C40.8921 29.4057 38.124 29.272 35.1647 29.4416C26.8287 29.9218 21.4696 34.7836 21.8295 41.5392C22.0121 44.966 23.7193 47.914 26.6363 49.8398C29.1026 51.4678 32.279 52.264 35.5802 52.0837C39.9399 51.8447 43.36 50.1814 45.746 47.1399C47.5581 44.8302 48.7042 41.837 49.2102 38.0655C51.2879 39.3194 52.8277 40.9695 53.6781 42.953C55.1241 46.3249 55.2085 51.8657 50.6874 56.3829C46.7262 60.3403 41.9647 62.0523 34.7688 62.1051C26.7865 62.046 20.7496 59.486 16.8246 54.4963C13.1491 49.8241 11.2496 43.0755 11.1788 34.4379C11.2496 25.8002 13.1491 19.0515 16.8246 14.3793C20.7496 9.3897 26.7864 6.8298 34.7686 6.77048C42.8088 6.83025 48.9509 9.40247 53.0262 14.4162C55.0244 16.8748 56.531 19.9667 57.5242 23.5718L63.1749 22.0642C61.9711 17.6267 60.0767 13.8029 57.499 10.6317C52.2745 4.20396 44.6335 0.910334 34.7884 0.842041H34.7489C24.9238 0.910097 17.3684 4.21625 12.2927 10.6686C7.77604 16.4104 5.44621 24.3996 5.36792 34.4143L5.36768 34.4379L5.36792 34.4615C5.44621 44.476 7.77604 52.4655 12.2927 58.2073C17.3684 64.6594 24.9238 67.9658 34.7489 68.0337H34.7884C43.5234 67.9732 49.6806 65.6862 54.7528 60.6185C61.3891 53.9886 61.1892 45.6781 59.002 40.5765C57.4328 36.918 54.441 33.9466 50.35 31.9841ZM35.2681 46.1639C31.6146 46.3696 27.8189 44.7297 27.6318 41.2172C27.493 38.6129 29.4852 35.7068 35.4924 35.3606C36.1803 35.321 36.8554 35.3016 37.5185 35.3016C39.7005 35.3016 41.7418 35.5135 43.5976 35.9192C42.9054 44.5639 38.8452 45.9675 35.2681 46.1639Z" fill="black"/>
</g>
<defs>
<clipPath id="clip0_739_203">
<rect width="67.1917" height="67.1917" fill="white" transform="translate(0.818237 0.842041)"/>
</clipPath>
</defs>
</svg>
