<svg width="57" height="57" viewBox="0 0 57 57" fill="none" xmlns="http://www.w3.org/2000/svg">
<path d="M4.8186 10.7332C4.8186 10.0893 5.34055 9.56738 5.98441 9.56738H50.2851C50.9289 9.56738 51.4509 10.0893 51.4509 10.7332V10.7332C51.4509 11.377 50.9289 11.899 50.2851 11.899H47.113C46.9333 11.899 46.7877 12.0447 46.7877 12.2243V39.7335C46.7877 39.8263 46.7508 39.9152 46.6852 39.9808L39.8952 46.7708C39.8297 46.8364 39.7407 46.8732 39.6479 46.8732H14.1451C11.5696 46.8732 9.48183 44.7854 9.48183 42.21V12.2243C9.48183 12.0447 9.33617 11.899 9.15649 11.899H5.98441C5.34055 11.899 4.8186 11.377 4.8186 10.7332V10.7332Z" fill="#BFC8E5"/>
<path d="M28.1348 32.3007V19.4768" stroke="#222222" stroke-width="2.33161" stroke-linecap="round"/>
<path d="M33.9639 35.2152L28.3533 39.7036C28.2256 39.8058 28.0441 39.8058 27.9164 39.7036L22.3058 35.2152" stroke="#222222" stroke-width="2.33161" stroke-linecap="round"/>
<path d="M5.98462 10.7332H50.2853" stroke="#222222" stroke-width="2.33161" stroke-linecap="round"/>
<path d="M39.8955 46.7709L46.6854 39.9809C46.751 39.9153 46.7879 39.8264 46.7879 39.7336V37.8966C46.7879 37.7035 46.6313 37.5469 46.4381 37.5469H39.793C38.5053 37.5469 37.4614 38.5908 37.4614 39.8785V46.5236C37.4614 46.7167 37.618 46.8733 37.8112 46.8733H39.6482C39.7409 46.8733 39.8299 46.8365 39.8955 46.7709Z" fill="#222222"/>
</svg>
