<svg width="68" height="69" viewBox="0 0 68 69" fill="none" xmlns="http://www.w3.org/2000/svg">
<g clip-path="url(#clip0_739_198)">
<path d="M67.9074 34.7183C67.9074 16.0094 52.7405 0.842529 34.0316 0.842529C15.3226 0.842529 0.155762 16.0094 0.155762 34.7183C0.155762 50.6047 11.0936 63.9356 25.8485 67.5969V45.0708H18.8633V34.7183H25.8485V30.2576C25.8485 18.7276 31.0668 13.3834 42.3867 13.3834C44.5331 13.3834 48.2364 13.8048 49.7513 14.2248V23.6084C48.9518 23.5244 47.5629 23.4824 45.838 23.4824C40.2837 23.4824 38.1373 25.5868 38.1373 31.057V34.7183H49.2025L47.3014 45.0708H38.1373V68.3462C54.9113 66.3204 67.9087 52.0384 67.9087 34.7183H67.9074Z" fill="#0866FF"/>
<path d="M47.3003 45.0707L49.2014 34.7183H38.1362V31.057C38.1362 25.5867 40.2825 23.4824 45.8368 23.4824C47.5618 23.4824 48.9507 23.5244 49.7501 23.6084V14.2248C48.2352 13.8034 44.5319 13.3833 42.3855 13.3833C31.0656 13.3833 25.8474 18.7275 25.8474 30.2575V34.7183H18.8622V45.0707H25.8474V67.5968C28.468 68.2472 31.2092 68.5941 34.0304 68.5941C35.4193 68.5941 36.7893 68.5087 38.1348 68.3461V45.0707H47.2989H47.3003Z" fill="white"/>
</g>
<defs>
<clipPath id="clip0_739_198">
<rect width="67.7516" height="67.7516" fill="white" transform="translate(0.155762 0.842529)"/>
</clipPath>
</defs>
</svg>
