<svg width="75" height="75" viewBox="0 0 75 75" fill="none" xmlns="http://www.w3.org/2000/svg">
<path d="M53.4533 27.2899C58.2063 30.6996 64.0288 32.7057 70.3175 32.7057V20.5614C69.1273 20.5616 67.9403 20.4371 66.7759 20.1895V29.7489C60.4877 29.7489 54.6659 27.7427 49.9117 24.3333V49.1164C49.9117 61.5142 39.8971 71.5638 27.5441 71.5638C22.9349 71.5638 18.6509 70.1654 15.0921 67.7671C19.1538 71.9349 24.8183 74.5205 31.0849 74.5205C43.4387 74.5205 53.4538 64.4708 53.4538 52.0725V27.2899H53.4533ZM57.8223 15.0377C55.3933 12.3746 53.7984 8.93293 53.4533 5.12806V3.56604H50.0972C50.942 8.40203 53.8234 12.5336 57.8223 15.0377ZM22.9054 58.2534C21.5482 56.4676 20.8149 54.2831 20.8182 52.037C20.8182 46.3667 25.3988 41.7692 31.0501 41.7692C32.1033 41.7689 33.1502 41.9308 34.1539 42.2504V29.8346C32.9809 29.6733 31.7971 29.6048 30.6138 29.6299V39.2937C29.6093 38.9741 28.5619 38.8118 27.5085 38.8128C21.8572 38.8128 17.2768 43.4099 17.2768 49.0809C17.2768 53.0907 19.5664 56.5623 22.9054 58.2534Z" fill="#FF004F"/>
<path d="M49.9111 24.333C54.6653 27.7424 60.4871 29.7486 66.7752 29.7486V20.1893C63.2652 19.4389 60.1579 17.5981 57.8216 15.0377C53.8225 12.5334 50.9413 8.40177 50.0965 3.56604H41.2808V52.072C41.2608 57.7268 36.688 62.3056 31.0489 62.3056C27.7258 62.3056 24.7736 60.7159 22.9039 58.2534C19.5652 56.5623 17.2756 53.0905 17.2756 49.0811C17.2756 43.4106 21.856 38.8131 27.5073 38.8131C28.5901 38.8131 29.6337 38.9823 30.6126 39.294V29.6301C18.4766 29.8818 8.71637 39.8333 8.71637 52.0723C8.71637 58.1819 11.1469 63.7205 15.0917 67.7673C18.6504 70.1654 22.9345 71.5641 27.5437 71.5641C39.8969 71.5641 49.9113 61.5139 49.9113 49.1164V24.333H49.9111Z" fill="black"/>
<path d="M66.7753 20.1893V17.6046C63.6101 17.6094 60.5071 16.7198 57.8217 15.0375C60.1989 17.6495 63.3292 19.4504 66.7753 20.1893ZM50.0966 3.56612C50.016 3.10396 49.9541 2.63875 49.9111 2.17177V0.609741H37.739V49.1162C37.7196 54.7703 33.147 59.349 27.5074 59.349C25.8517 59.349 24.2884 58.9546 22.904 58.2537C24.7737 60.716 27.7259 62.3054 31.049 62.3054C36.6876 62.3054 41.2612 57.7271 41.2809 52.0724V3.56612H50.0966ZM30.6132 29.6302V26.8785C29.5961 26.739 28.5707 26.669 27.544 26.6695C15.1898 26.6693 5.17511 36.7195 5.17511 49.1162C5.17511 56.8883 9.11105 63.7378 15.092 67.7669C11.1472 63.7203 8.71669 58.1814 8.71669 52.0721C8.71669 39.8334 18.4767 29.8819 30.6132 29.6302Z" fill="#00F2EA"/>
</svg>
