<svg width="60" height="59" viewBox="0 0 60 59" fill="none" xmlns="http://www.w3.org/2000/svg">
<g clip-path="url(#clip0_739_183)">
<path d="M58.6795 15.198C58.3464 13.9444 57.6898 12.8002 56.7756 11.8801C55.8613 10.96 54.7214 10.2961 53.47 9.95495C48.8631 8.71619 30.449 8.71619 30.449 8.71619C30.449 8.71619 12.0349 8.71619 7.42801 9.95495C6.17657 10.2961 5.03669 10.96 4.12244 11.8801C3.20818 12.8002 2.55163 13.9444 2.21849 15.198C0.98642 19.8249 0.98642 29.4739 0.98642 29.4739C0.98642 29.4739 0.98642 39.1229 2.21849 43.7499C2.55163 45.0035 3.20818 46.1476 4.12244 47.0677C5.03669 47.9878 6.17657 48.6517 7.42801 48.9929C12.0349 50.2316 30.449 50.2316 30.449 50.2316C30.449 50.2316 48.8631 50.2316 53.47 48.9929C54.7214 48.6517 55.8613 47.9878 56.7756 47.0677C57.6898 46.1476 58.3464 45.0035 58.6795 43.7499C59.9116 39.1229 59.9116 29.4739 59.9116 29.4739C59.9116 29.4739 59.9116 19.8249 58.6795 15.198Z" fill="#FF0302"/>
<path d="M24.4225 38.2358V20.7123L39.8233 29.4741L24.4225 38.2358Z" fill="#FEFEFE"/>
</g>
<defs>
<clipPath id="clip0_739_183">
<rect width="58.9252" height="58.9252" fill="white" transform="translate(0.927673 0.0113525)"/>
</clipPath>
</defs>
</svg>
