<svg width="27" height="27" viewBox="0 0 27 27" fill="none" xmlns="http://www.w3.org/2000/svg">
<path d="M0.0148773 26.9719L1.84953 20.2695C0.717417 18.3076 0.122542 16.0836 0.12363 13.8031C0.126892 6.67327 5.92883 0.871338 13.0575 0.871338C16.517 0.872425 19.7643 2.21987 22.2069 4.66462C24.6484 7.10937 25.9925 10.3589 25.9915 13.815C25.9882 20.9459 20.1863 26.7479 13.0575 26.7479C10.8934 26.7468 8.76074 26.2041 6.87171 25.1731L0.0148773 26.9719ZM7.18927 22.8317C9.01196 23.9138 10.752 24.5619 13.0532 24.563C18.978 24.563 23.8045 19.741 23.8077 13.8129C23.8099 7.87281 19.0063 3.05726 13.0619 3.05508C7.13272 3.05508 2.30955 7.87716 2.30738 13.8042C2.30629 16.2239 3.01535 18.0357 4.20619 19.9313L3.11976 23.8986L7.18927 22.8317ZM19.5729 16.8895C19.4924 16.7546 19.2771 16.6741 18.953 16.5121C18.63 16.3501 17.0411 15.5681 16.7442 15.4605C16.4484 15.3528 16.2331 15.2984 16.0167 15.6225C15.8014 15.9455 15.1815 16.6741 14.9933 16.8895C14.8052 17.1048 14.616 17.132 14.293 16.9699C13.97 16.8079 12.9281 16.4675 11.6938 15.3658C10.7335 14.5089 10.0843 13.4507 9.89611 13.1266C9.70797 12.8036 9.87654 12.6286 10.0375 12.4676C10.1832 12.323 10.3605 12.0902 10.5225 11.901C10.6867 11.7139 10.74 11.5791 10.8488 11.3627C10.9564 11.1473 10.9032 10.9581 10.8216 10.7961C10.74 10.6351 10.094 9.04408 9.82543 8.397C9.56224 7.76732 9.2958 7.85215 9.09787 7.84236L8.47798 7.83149C8.26265 7.83149 7.91247 7.91196 7.61667 8.23605C7.32086 8.56013 6.48564 9.34097 6.48564 10.932C6.48564 12.5231 7.64385 14.0597 7.80481 14.2751C7.96685 14.4904 10.0832 17.7551 13.3251 19.1548C14.0961 19.4876 14.6986 19.6866 15.1673 19.8356C15.9417 20.0814 16.6464 20.0465 17.2032 19.9639C17.8242 19.8715 19.1151 19.182 19.3848 18.4272C19.6545 17.6714 19.6545 17.0243 19.5729 16.8895Z" fill="black"/>
</svg>
