<svg width="60" height="60" viewBox="0 0 60 60" fill="none" xmlns="http://www.w3.org/2000/svg">
<path d="M60 38.75C59.9985 36.9014 59.5415 35.0817 58.6694 33.4518C57.7973 31.8219 56.537 30.432 55 29.405V8.75C55 6.42936 54.0781 4.20376 52.4372 2.56282C50.7962 0.921872 48.5706 0 46.25 0H13.75C11.4294 0 9.20376 0.921872 7.56282 2.56282C5.92187 4.20376 5 6.42936 5 8.75V55H35V47.5H12.5V8.75C12.5 8.41848 12.6317 8.10054 12.8661 7.86612C13.1005 7.6317 13.4185 7.5 13.75 7.5H46.25C46.5815 7.5 46.8995 7.6317 47.1339 7.86612C47.3683 8.10054 47.5 8.41848 47.5 8.75V27.6275C45.2104 27.8744 43.0526 28.821 41.3202 30.3383C39.5879 31.8555 38.3652 33.8699 37.8187 36.1069C37.2722 38.344 37.4284 40.6952 38.2661 42.8403C39.1037 44.9854 40.5821 46.8202 42.5 48.095V60L48.75 53.75L55 60V48.095C56.537 47.068 57.7973 45.6781 58.6694 44.0482C59.5415 42.4183 59.9985 40.5986 60 38.75V38.75ZM48.75 35C49.4917 35 50.2167 35.2199 50.8334 35.632C51.4501 36.044 51.9307 36.6297 52.2145 37.3149C52.4984 38.0002 52.5726 38.7542 52.4279 39.4816C52.2833 40.209 51.9261 40.8772 51.4016 41.4016C50.8772 41.9261 50.209 42.2833 49.4816 42.4279C48.7542 42.5726 48.0002 42.4984 47.3149 42.2145C46.6297 41.9307 46.044 41.4501 45.632 40.8334C45.2199 40.2167 45 39.4917 45 38.75C45 37.7554 45.3951 36.8016 46.0984 36.0983C46.8016 35.3951 47.7554 35 48.75 35V35ZM42.5 20H17.5V12.5H42.5V20ZM17.5 25H32.5V32.5H17.5V25Z" fill="#8A84E2"/>
</svg>
