<svg width="32" height="33" viewBox="0 0 32 33" fill="none" xmlns="http://www.w3.org/2000/svg">
<g clip-path="url(#clip0_1091_2293)">
<path d="M16 13.5908V19.7872H24.6109C24.2328 21.7799 23.0981 23.4673 21.3963 24.6018L26.589 28.6309C29.6144 25.8383 31.3599 21.7364 31.3599 16.8637C31.3599 15.7292 31.2581 14.6382 31.069 13.591L16 13.5908Z" fill="#4285F4"/>
<path d="M7.03347 19.5454L5.86232 20.4419L1.7168 23.671C4.34952 28.8927 9.74548 32.5001 16 32.5001C20.3199 32.5001 23.9416 31.0746 26.589 28.631L21.3963 24.6019C19.9708 25.5619 18.1526 26.1438 16 26.1438C11.84 26.1438 8.30556 23.3365 7.04001 19.5546L7.03347 19.5454Z" fill="#34A853"/>
<path d="M1.71624 9.3291C0.625389 11.4817 0 13.9109 0 16.4999C0 19.089 0.625389 21.5181 1.71624 23.6707C1.71624 23.6852 7.03997 19.5398 7.03997 19.5398C6.71997 18.5798 6.53082 17.5617 6.53082 16.4997C6.53082 15.4378 6.71997 14.4197 7.03997 13.4597L1.71624 9.3291Z" fill="#FBBC05"/>
<path d="M16.0003 6.8709C18.3567 6.8709 20.4512 7.68543 22.1239 9.25636L26.7057 4.6746C23.9275 2.08555 20.3204 0.5 16.0003 0.5C9.74581 0.5 4.34952 4.09272 1.7168 9.3291L7.04036 13.46C8.30574 9.67816 11.8403 6.8709 16.0003 6.8709Z" fill="#EA4335"/>
</g>
<defs>
<clipPath id="clip0_1091_2293">
<rect width="32" height="32" fill="white" transform="translate(0 0.5)"/>
</clipPath>
</defs>
</svg>
