<svg width="48" height="48" viewBox="0 0 48 48" fill="none" xmlns="http://www.w3.org/2000/svg">
<path d="M24 24C29.5228 24 34 19.5228 34 14C34 8.47715 29.5228 4 24 4C18.4772 4 14 8.47715 14 14C14 19.5228 18.4772 24 24 24Z" fill="white"/>
<path opacity="0.4" d="M24.0004 29C13.9804 29 5.82031 35.72 5.82031 44C5.82031 44.56 6.26031 45 6.82031 45H41.1804C41.7404 45 42.1804 44.56 42.1804 44C42.1804 35.72 34.0204 29 24.0004 29Z" fill="white"/>
<path d="M42.8601 29.48C41.0601 27.68 39.6401 28.26 38.4201 29.48L31.34 36.5601C31.06 36.8401 30.8001 37.36 30.7401 37.74L30.3601 40.44C30.2201 41.42 30.9001 42.1 31.8801 41.96L34.58 41.58C34.96 41.52 35.5001 41.26 35.7601 40.98L42.84 33.9001C44.08 32.7001 44.6601 31.28 42.8601 29.48Z" fill="white"/>
</svg>
